<?xml version="1.0" standalone="no"?>
<!DOCTYPE svg PUBLIC "-//W3C//DTD SVG 20010904//EN"
 "http://www.w3.org/TR/2001/REC-SVG-20010904/DTD/svg10.dtd">
<svg version="1.0" xmlns="http://www.w3.org/2000/svg"
 width="700.000000pt" height="700.000000pt" viewBox="0 0 700.000000 700.000000"
 preserveAspectRatio="xMidYMid meet">
<metadata>
Created by potrace 1.14, written by Peter Selinger 2001-2017
</metadata>
<g transform="translate(0.000000,700.000000) scale(0.100000,-0.100000)"
fill="#000000" stroke="none">
<path d="M3289 6926 c-2 -2 -42 -6 -89 -10 -47 -3 -94 -8 -105 -10 -11 -2 -47
-7 -80 -11 -32 -4 -68 -9 -80 -11 -11 -2 -33 -6 -50 -9 -347 -59 -756 -207
-1077 -392 -167 -95 -445 -288 -509 -352 -9 -9 -40 -36 -68 -60 -55 -46 -234
-223 -286 -282 -84 -96 -138 -163 -202 -249 -71 -97 -183 -265 -183 -276 0 -3
-8 -18 -19 -32 -72 -103 -200 -376 -274 -587 -88 -252 -127 -415 -171 -715
-29 -197 -29 -628 0 -855 114 -892 563 -1693 1263 -2254 475 -380 1035 -623
1649 -716 145 -22 272 -30 492 -30 216 0 319 6 485 30 22 3 57 7 77 10 30 4
204 40 288 60 110 26 352 108 485 165 828 352 1483 1012 1836 1848 5 12 13 32
18 45 12 27 73 204 95 272 44 139 106 438 122 590 3 33 9 89 14 125 8 68 6
557 -3 600 -3 14 -8 54 -12 88 -35 358 -169 796 -351 1151 -220 427 -476 747
-864 1082 -66 56 -259 196 -361 261 -123 77 -417 230 -514 267 -33 13 -82 32
-110 43 -231 89 -576 173 -800 194 -33 3 -71 8 -85 11 -30 6 -525 15 -531 9z
m361 -860 c63 -3 131 -8 150 -11 19 -3 53 -7 75 -10 22 -3 51 -7 65 -10 148
-29 201 -42 300 -72 752 -226 1367 -791 1653 -1520 69 -173 102 -299 153 -568
26 -137 25 -668 -1 -747 -2 -7 -6 -31 -9 -53 -7 -52 -22 -124 -41 -200 -8 -33
-18 -70 -20 -82 -3 -12 -21 -68 -41 -125 -71 -206 -180 -425 -293 -593 -19
-27 -45 -64 -56 -82 -21 -30 -80 -107 -100 -130 -164 -186 -319 -332 -470
-441 -311 -225 -632 -366 -1004 -441 -129 -27 -183 -34 -321 -47 -49 -4 -337
-4 -380 0 -19 2 -64 7 -100 10 -36 3 -75 8 -86 10 -12 3 -37 7 -55 10 -375 60
-771 228 -1096 468 -470 345 -817 858 -963 1423 -15 61 -31 128 -34 150 -3 22
-8 51 -11 65 -25 119 -30 194 -30 420 0 263 12 384 59 595 69 315 236 674 440
945 91 122 101 134 226 263 354 367 807 618 1304 723 39 8 87 17 106 20 19 3
46 7 60 9 72 14 365 34 395 28 6 -1 62 -4 125 -7z"/>
<path d="M2638 4141 c-466 -350 -847 -638 -847 -641 0 -3 180 -140 400 -305
220 -165 408 -306 417 -313 10 -6 71 -52 137 -102 66 -49 125 -93 130 -97 57
-46 617 -463 620 -463 3 0 5 214 5 475 0 261 3 475 6 475 3 0 291 -214 640
-475 348 -261 635 -475 637 -475 2 0 3 576 3 1280 0 704 -2 1280 -4 1280 -3 0
-454 -336 -525 -391 -15 -12 -150 -113 -300 -225 -150 -112 -276 -207 -282
-211 -32 -28 -163 -123 -168 -123 -4 0 -7 214 -7 475 0 261 -3 475 -7 474 -5
-1 -389 -288 -855 -638z"/>
</g>
</svg>
