<svg
	class="svg-icon"
	style="
		width: 1em;
		height: 1em;
		vertical-align: middle;
		fill: #eab308;
		overflow: hidden;
	"
	viewBox="0 0 1024 1024"
	version="1.1"
	xmlns="http://www.w3.org/2000/svg"
>
	<path
		d="M512 51.2C258.048 51.2 51.2 258.048 51.2 512s206.848 460.8 460.8 460.8 460.8-206.848 460.8-460.8S765.952 51.2 512 51.2z m0 880.64C280.576 931.84 92.16 743.424 92.16 512S280.576 92.16 512 92.16s419.84 188.416 419.84 419.84-188.416 419.84-419.84 419.84z m166.912-604.16c-6.144 1.024-13.312 3.072-20.48 9.216l-194.56 135.168c-11.264 7.168-19.456 18.432-21.504 31.744-3.072 13.312 1.024 28.672 8.192 39.936 3.072 5.12 8.192 10.24 14.336 14.336l196.608 131.072c8.192 5.12 18.432 8.192 27.648 8.192 16.384 0 31.744-7.168 41.984-21.504l1.024-1.024c4.096-6.144 7.168-13.312 7.168-20.48 9.216-43.008 13.312-90.112 13.312-139.264 0-50.176-5.12-99.328-14.336-147.456-6.144-26.624-31.744-44.032-59.392-39.936z m19.456 320.512v4.096c-3.072 4.096-10.24 6.144-15.36 3.072L486.4 523.264l-3.072-3.072c-2.048-2.048-2.048-5.12-2.048-8.192 0-2.048 1.024-4.096 4.096-6.144l196.608-136.192c1.024 0 1.024-1.024 2.048-1.024h2.048c7.168-1.024 11.264 4.096 12.288 9.216 8.192 44.032 13.312 90.112 13.312 138.24 0 47.104-4.096 91.136-13.312 132.096z m-133.12 4.096c0 7.168-2.048 15.36-7.168 22.528l-1.024 1.024c-10.24 13.312-26.624 21.504-41.984 21.504-9.216 0-19.456-3.072-27.648-8.192L290.816 558.08c-5.12-3.072-10.24-8.192-14.336-14.336-8.192-11.264-11.264-25.6-8.192-39.936 3.072-13.312 10.24-24.576 21.504-31.744l194.56-135.168c7.168-6.144 14.336-8.192 19.456-9.216h1.024c13.312-2.048 26.624 0 37.888 8.192s19.456 19.456 21.504 32.768c2.048 11.264-5.12 21.504-16.384 23.552s-21.504-5.12-23.552-16.384c-1.024-3.072-3.072-5.12-4.096-6.144-1.024-1.024-4.096-2.048-7.168-2.048-1.024 1.024-1.024 1.024-2.048 1.024s-1.024 1.024-2.048 1.024L312.32 505.856c-3.072 2.048-4.096 4.096-4.096 6.144-1.024 3.072 0 6.144 2.048 8.192l3.072 3.072 195.584 131.072c5.12 3.072 11.264 1.024 15.36-3.072v-1.024c1.024-10.24 9.216-19.456 20.48-19.456 11.264 1.024 20.48 10.24 20.48 21.504z"
	/>
</svg>
