<?xml version="1.0" standalone="no"?>
<!DOCTYPE svg PUBLIC "-//W3C//DTD SVG 20010904//EN"
 "http://www.w3.org/TR/2001/REC-SVG-20010904/DTD/svg10.dtd">
<svg version="1.0" xmlns="http://www.w3.org/2000/svg"
 width="700.000000pt" height="700.000000pt" viewBox="0 0 700.000000 700.000000"
 preserveAspectRatio="xMidYMid meet">
<metadata>
Created by potrace 1.14, written by Peter Selinger 2001-2017
</metadata>
<g transform="translate(0.000000,700.000000) scale(0.100000,-0.100000)"
fill="#000000" stroke="none">
<path d="M3577 6764 c-1 -1 -33 -5 -72 -8 -38 -3 -79 -8 -90 -10 -11 -2 -49
-7 -85 -11 -90 -9 -283 -42 -355 -60 -33 -9 -68 -17 -78 -20 -82 -19 -238 -70
-347 -112 -297 -115 -557 -265 -877 -504 l-42 -32 -38 30 c-167 129 -378 194
-613 188 -527 -14 -964 -451 -975 -975 -3 -139 6 -218 41 -330 110 -357 415
-625 790 -696 88 -16 282 -16 364 1 464 94 810 504 814 965 1 105 -7 193 -23
261 -10 42 -18 31 109 130 297 232 620 389 985 483 55 14 132 30 170 36 39 6
81 13 95 15 34 6 101 13 180 20 79 7 326 8 395 1 175 -17 214 -23 350 -53 61
-13 120 -26 133 -29 53 -11 264 -84 357 -124 510 -215 953 -597 1234 -1065
122 -204 240 -473 281 -645 5 -19 16 -62 24 -95 8 -33 17 -71 20 -85 2 -14 9
-48 15 -77 6 -28 13 -77 16 -108 4 -31 9 -66 11 -78 3 -12 7 -112 9 -222 4
-265 -8 -372 -81 -715 -12 -58 -89 -280 -130 -375 -186 -435 -477 -806 -856
-1090 -380 -286 -846 -466 -1323 -512 -105 -10 -396 -10 -508 0 -185 17 -422
68 -608 133 -171 59 -390 159 -471 215 -14 11 -29 19 -33 19 -10 0 -179 115
-250 169 -184 142 -359 319 -495 501 -46 61 -90 112 -115 132 -43 34 -115 59
-168 60 -217 3 -377 -197 -313 -390 28 -83 222 -328 401 -508 80 -79 224 -210
258 -233 12 -8 24 -18 27 -21 17 -22 349 -250 364 -250 2 0 33 -17 67 -38 266
-161 753 -332 1074 -376 232 -32 321 -39 510 -40 136 0 324 9 371 18 11 2 42
7 69 10 83 11 142 22 238 41 779 163 1473 607 1953 1250 61 81 194 280 194
290 0 3 11 23 25 45 125 198 288 620 346 895 7 33 14 65 15 70 8 37 34 200 39
245 3 30 10 89 14 130 9 76 6 520 -3 575 -3 17 -8 62 -12 100 -3 39 -8 73 -10
76 -2 3 -8 34 -14 70 -17 109 -20 120 -56 257 -98 379 -252 717 -471 1035 -40
60 -78 114 -83 120 -6 7 -44 55 -87 107 -156 194 -430 448 -643 597 -303 211
-706 400 -1020 478 -270 67 -410 92 -630 111 -70 6 -378 13 -383 8z m-2427
-1180 c111 -44 199 -143 232 -259 54 -189 -31 -375 -212 -462 -76 -37 -205
-42 -288 -11 -109 40 -201 129 -238 229 -9 24 -18 77 -20 117 -11 232 177 422
406 408 41 -2 95 -12 120 -22z"/>
<path d="M2805 4891 c-95 -23 -181 -99 -216 -190 l-22 -56 -1 -1110 c-1 -610
2 -1133 6 -1162 13 -108 73 -193 171 -245 34 -18 58 -23 127 -23 l85 0 185 91
c1332 658 2083 1037 2119 1072 126 120 128 333 4 454 -28 28 -190 113 -613
324 -1152 574 -1679 833 -1717 843 -42 12 -83 13 -128 2z m979 -1110 l569
-285 -578 -288 c-317 -159 -580 -286 -584 -283 -3 4 -6 264 -6 580 0 508 1
572 15 567 8 -3 271 -134 584 -291z"/>
</g>
</svg>
