<?xml version="1.0" encoding="iso-8859-1"?>
<!-- Uploaded to: SVG Repo, www.svgrepo.com, Generator: SVG Repo Mixer Tools -->
<svg
  height="800px"
  width="800px"
  version="1.1"
  id="Layer_1"
  xmlns="http://www.w3.org/2000/svg"
  xmlns:xlink="http://www.w3.org/1999/xlink"
  viewBox="0 0 441.494 441.494"
  xml:space="preserve"
>
  <g>
    <g>
      <path
        style="fill: #333e48"
        d="M101.453,196.202C45.692,196.202,0.444,241.186,0,296.843c13.071-5.96,27.596-9.284,42.898-9.284
			c26.392,0,50.473,9.882,68.756,26.141c18.283-16.259,42.364-26.141,68.756-26.141c7.73,0,15.259,0.855,22.506,2.461v-93.817
			L101.453,196.202L101.453,196.202z"
      />
      <path
        style="fill: #5c6670"
        d="M111.268,210.199c-49.438,0-90.608,35.363-99.619,82.173c9.861-3.12,20.357-4.813,31.25-4.813
			c26.392,0,50.473,9.882,68.756,26.141c18.283-16.259,42.364-26.141,68.756-26.141c7.73,0,15.259,0.855,22.506,2.461v-79.821
			L111.268,210.199L111.268,210.199z"
      />
    </g>
    <g>
      <path
        style="fill: #333e48"
        d="M340.041,196.202c55.761,0,101.009,44.983,101.453,100.641c-13.071-5.96-27.596-9.284-42.898-9.284
			c-26.392,0-50.473,9.882-68.756,26.141c-18.283-16.259-42.364-26.141-68.756-26.141c-7.73,0-15.259,0.855-22.506,2.461v-93.817
			L340.041,196.202L340.041,196.202z"
      />
      <path
        style="fill: #5c6670"
        d="M330.227,210.199c49.439,0,90.608,35.363,99.619,82.173c-9.861-3.12-20.357-4.813-31.25-4.813
			c-26.392,0-50.473,9.882-68.756,26.141c-18.283-16.259-42.364-26.141-68.756-26.141c-7.73,0-15.259,0.855-22.506,2.461v-79.821
			L330.227,210.199L330.227,210.199z"
      />
    </g>
    <path
      style="fill: #333e48"
      d="M276.881,183.006c0-31.002-25.132-56.134-56.134-56.134c-31.003,0-56.134,25.132-56.134,56.134
		c0,6.963,1.277,13.625,3.594,19.777c-2.224,2.544-3.582,5.865-3.582,9.51v60.789c0,15.523,6.304,29.574,16.489,39.734v17.441
		c0,6.021,4.881,10.902,10.902,10.902c6.02,0,10.9-4.882,10.902-10.901v-3.962c5.604,1.877,11.595,2.909,17.83,2.909
		c6.236,0,12.227-1.032,17.831-2.91v3.963c0.001,6.019,4.881,10.901,10.901,10.901c6.021,0,10.902-4.881,10.902-10.902v-17.441
		c10.186-10.16,16.489-24.21,16.489-39.734v-60.789c0-3.645-1.358-6.966-3.583-9.51
		C275.604,196.631,276.881,189.969,276.881,183.006z"
    />
    <circle style="fill: #5c6670" cx="189.924" cy="168.091" r="5.576" />
    <circle style="fill: #5c6670" cx="251.57" cy="168.091" r="5.576" />
    <polygon
      style="fill: #ffffff"
      points="208.135,204.811 203.831,196.202 212.44,196.202 	"
    />
    <polygon
      style="fill: #ffffff"
      points="233.359,204.811 237.663,196.202 229.054,196.202 	"
    />
    <path
      style="fill: #5c6670"
      d="M226.744,186.154c-3.039,3.151-8.101,3.241-11.249,0.201l-3.513-3.391
		c-3.149-3.041-2.144-5.528,2.233-5.528h12.978c4.378,0,5.472,2.578,2.433,5.729L226.744,186.154z"
    />
    <g>
      <path
        style="fill: #333e48"
        d="M189.924,130.103c0-16.441-14.884-29.768-14.884-29.768s-14.885,13.327-14.885,29.768
			s14.885,29.769,14.885,29.769S189.924,146.543,189.924,130.103z"
      />
      <path
        style="fill: #5c6670"
        d="M183.254,130.103c0-9.075-8.214-16.43-8.214-16.43s-8.216,7.355-8.216,16.43
			s8.216,16.431,8.216,16.431S183.254,139.177,183.254,130.103z"
      />
    </g>
    <g>
      <path
        style="fill: #333e48"
        d="M251.57,130.103c0-16.441,14.884-29.768,14.884-29.768s14.885,13.327,14.885,29.768
			s-14.885,29.769-14.885,29.769S251.57,146.543,251.57,130.103z"
      />
      <path
        style="fill: #5c6670"
        d="M258.24,130.103c0-9.075,8.214-16.43,8.214-16.43s8.216,7.355,8.216,16.43
			s-8.216,16.431-8.216,16.431S258.24,139.177,258.24,130.103z"
      />
    </g>
  </g>
</svg>
