<?xml version="1.0" encoding="iso-8859-1"?>
<!-- Uploaded to: SVG Repo, www.svgrepo.com, Generator: SVG Repo Mixer Tools -->
<svg
  version="1.1"
  id="Layer_1"
  xmlns="http://www.w3.org/2000/svg"
  xmlns:xlink="http://www.w3.org/1999/xlink"
  viewBox="0 0 413.684 413.684"
  xml:space="preserve"
>
  <g>
    <g>
      <path
        style="fill: #0075c9"
        d="M5.881,152.985c-3.248,0-5.881,2.633-5.881,5.881c0,0.143,0.005,0.285,0.016,0.426L0,159.294
			c2.927,48.698,39.529,88.298,86.828,95.876L54.66,287.339c-2.027,2.027-2.027,5.313,0,7.34c0.089,0.088,0.183,0.174,0.275,0.257
			l-0.008,0.01c35.88,31.812,90.795,30.539,125.153-3.818c17.389-17.388,26.277-40.041,26.719-62.826h0.042v-75.317L5.881,152.985
			L5.881,152.985z"
      />
      <circle style="fill: #ffffff" cx="72.23" cy="196.278" r="25.678" />
      <circle style="fill: #ffffff" cx="140.238" cy="274.874" r="18.455" />
      <circle style="fill: #ffffff" cx="140.238" cy="193.373" r="14.108" />
    </g>
    <g>
      <path
        style="fill: #0075c9"
        d="M407.803,152.985c3.248,0,5.881,2.633,5.881,5.881c0,0.143-0.005,0.285-0.015,0.426l0.015,0.001
			c-2.927,48.698-39.529,88.298-86.828,95.876l32.168,32.169c2.027,2.027,2.027,5.313,0,7.34c-0.089,0.088-0.183,0.174-0.275,0.257
			l0.008,0.01c-35.88,31.812-90.795,30.539-125.153-3.818c-17.388-17.388-26.277-40.041-26.719-62.826h-0.042v-75.317
			L407.803,152.985L407.803,152.985z"
      />
      <circle style="fill: #ffffff" cx="341.454" cy="196.278" r="25.678" />
      <circle style="fill: #ffffff" cx="273.446" cy="274.874" r="18.456" />
      <circle style="fill: #ffffff" cx="273.446" cy="193.373" r="14.109" />
    </g>
    <path
      style="fill: #333e48"
      d="M227.305,306.874c0,11.3-9.162,20.462-20.463,20.462s-20.463-9.162-20.463-20.462V134.066
		c0-11.301,9.162-20.462,20.463-20.462s20.463,9.162,20.463,20.462V306.874z"
    />
    <rect
      x="186.379"
      y="253.57"
      style="fill: #5c6670"
      width="40.926"
      height="15.938"
    />
    <rect
      x="186.379"
      y="220.47"
      style="fill: #5c6670"
      width="40.926"
      height="15.938"
    />
    <path
      style="fill: #333e48"
      d="M206.842,130.242c-0.77,0-1.54-0.293-2.128-0.882L166.84,91.486c-1.175-1.175-1.175-3.08,0-4.255
		c1.176-1.175,3.079-1.175,4.255,0l37.875,37.875c1.175,1.175,1.175,3.08,0,4.255C208.382,129.949,207.612,130.242,206.842,130.242z
		"
    />
    <path
      style="fill: #333e48"
      d="M206.842,130.242c-0.77,0-1.54-0.293-2.128-0.882c-1.175-1.175-1.175-3.08,0-4.255l37.875-37.875
		c1.175-1.175,3.079-1.175,4.255,0c1.175,1.175,1.175,3.08,0,4.255l-37.874,37.874C208.382,129.949,207.612,130.242,206.842,130.242
		z"
    />
  </g>
</svg>
