<?xml version="1.0" encoding="iso-8859-1"?>
<!-- Uploaded to: SVG Repo, www.svgrepo.com, Generator: SVG Repo Mixer Tools -->
<svg
  version="1.1"
  id="Layer_1"
  xmlns="http://www.w3.org/2000/svg"
  xmlns:xlink="http://www.w3.org/1999/xlink"
  viewBox="0 0 365.986 365.986"
  xml:space="preserve"
>
  <g>
    <path
      style="fill: #967a4a"
      d="M311.669,227.16c-5.952,0-10.778-4.826-10.778-10.778c0-5.953,4.826-10.778,10.778-10.778
		c18.064,0,32.761-14.697,32.761-32.762c0-18.064-14.696-32.761-32.761-32.761c-29.951,0-54.318-24.367-54.318-54.318
		s24.367-54.318,54.318-54.318c5.952,0,10.778,4.826,10.778,10.778c0,5.953-4.826,10.778-10.778,10.778
		c-18.065,0-32.762,14.697-32.762,32.761s14.696,32.762,32.762,32.762c29.95,0,54.317,24.367,54.317,54.317
		C365.986,202.792,341.619,227.16,311.669,227.16z"
    />
    <path
      style="fill: #826a40"
      d="M61.269,230.35c-13.046,0-23.62,10.575-23.62,23.619v49.082H15.78
		c-8.694,0-15.745,7.049-15.745,15.745v8.639c0,3.925,3.181,7.107,7.108,7.107h61.998c8.695,0,15.745-7.049,15.745-15.746v-64.827
		C84.887,240.923,74.312,230.35,61.269,230.35z"
    />
    <g>
      <path
        style="fill: #967a4a"
        d="M255.978,155.107H52.042V258.93c0,39.053,31.659,70.711,70.711,70.711h133.225v-0.503
			c48.059,0,87.016-38.958,87.016-87.015C342.993,194.065,304.036,155.107,255.978,155.107z"
      />
      <path
        style="fill: #65513c"
        d="M164.144,155.107v51.166c0,9.684,7.851,17.535,17.535,17.535c9.685,0,17.536-7.851,17.536-17.535
			v-51.166H164.144z"
      />
      <path
        style="fill: #65513c"
        d="M225.148,155.107v51.166c0,9.684,7.852,17.535,17.535,17.535c9.686,0,17.536-7.851,17.536-17.535
			v-51.166H225.148z"
      />
    </g>
    <path
      style="fill: #ad8d56"
      d="M264.599,213.898c-33.313,0-60.321,27.006-60.321,60.321c0,10.443,2.655,20.265,7.325,28.831h-6.36
		c-8.694,0-15.745,7.049-15.745,15.745v8.639c0,3.925,3.181,7.107,7.108,7.107h67.993c33.314,0,60.322-27.006,60.322-60.322
		C324.921,240.904,297.913,213.898,264.599,213.898z"
    />
    <path
      style="fill: #ad8d56"
      d="M140.761,230.35c-13.046,0-23.619,10.575-23.619,23.619v49.082H95.273
		c-8.695,0-15.745,7.049-15.745,15.745v8.639c0,3.925,3.181,7.107,7.107,7.107h61.998c8.695,0,15.745-7.049,15.745-15.746v-64.827
		C164.379,240.923,153.804,230.35,140.761,230.35z"
    />
    <g>
      <path
        style="fill: #967a4a"
        d="M172.395,84.364V44.921c0-4.543-3.681-8.224-8.224-8.224c-2.165,0-4.135,0.836-5.604,2.204
			l-31.324,31.324c-11.747-7.845-25.859-12.426-41.046-12.426s-29.3,4.581-41.047,12.427L13.826,38.901
			c-1.469-1.368-3.438-2.204-5.602-2.204C3.682,36.697,0,40.378,0,44.921v99.252c0,47.606,38.592,92.008,86.198,92.008
			c47.605,0,86.198-44.402,86.198-92.008L172.395,84.364L172.395,84.364L172.395,84.364z"
      />
      <path
        style="fill: #ffffff"
        d="M103.257,142.327h-34.12c-10.373,0-18.782,8.41-18.782,18.783c0,10.374,8.409,18.783,18.782,18.783
			c7.578,0,14.09-4.496,17.061-10.957c2.97,6.461,9.482,10.957,17.06,10.957c10.373,0,18.783-8.409,18.783-18.783
			C122.04,150.736,113.63,142.327,103.257,142.327z"
      />
      <circle style="fill: #333e48" cx="36.573" cy="125.824" r="8.601" />
      <circle style="fill: #333e48" cx="135.821" cy="125.823" r="8.6" />
      <path
        style="fill: #333e48"
        d="M96.843,154.84c-5.394,5.593-14.38,5.753-19.97,0.356l-6.234-6.02
			c-5.59-5.398-3.807-9.814,3.964-9.814h23.038c7.77,0,9.714,4.577,4.32,10.17L96.843,154.84z"
      />
      <g>
        <line
          style="
            fill: none;
            stroke: #333e48;
            stroke-width: 3;
            stroke-linecap: round;
            stroke-linejoin: round;
            stroke-miterlimit: 10;
          "
          x1="61.742"
          y1="163.897"
          x2="27.806"
          y2="171.844"
        />

        <line
          style="
            fill: none;
            stroke: #333e48;
            stroke-width: 3;
            stroke-linecap: round;
            stroke-linejoin: round;
            stroke-miterlimit: 10;
          "
          x1="65.497"
          y1="171.374"
          x2="37.503"
          y2="188.182"
        />

        <line
          style="
            fill: none;
            stroke: #333e48;
            stroke-width: 3;
            stroke-linecap: round;
            stroke-linejoin: round;
            stroke-miterlimit: 10;
          "
          x1="59.613"
          y1="155.658"
          x2="25.309"
          y2="154.359"
        />
      </g>
      <g>
        <line
          style="
            fill: none;
            stroke: #333e48;
            stroke-width: 3;
            stroke-linecap: round;
            stroke-linejoin: round;
            stroke-miterlimit: 10;
          "
          x1="110.652"
          y1="163.897"
          x2="144.589"
          y2="171.844"
        />

        <line
          style="
            fill: none;
            stroke: #333e48;
            stroke-width: 3;
            stroke-linecap: round;
            stroke-linejoin: round;
            stroke-miterlimit: 10;
          "
          x1="106.896"
          y1="171.374"
          x2="134.891"
          y2="188.182"
        />

        <line
          style="
            fill: none;
            stroke: #333e48;
            stroke-width: 3;
            stroke-linecap: round;
            stroke-linejoin: round;
            stroke-miterlimit: 10;
          "
          x1="112.78"
          y1="155.658"
          x2="147.085"
          y2="154.359"
        />
      </g>
      <path
        style="fill: #65513c"
        d="M86.197,57.799c-6.044,0-11.912,0.742-17.536,2.108v24.202c0,9.684,7.852,17.535,17.536,17.535
			s17.535-7.851,17.535-17.535V59.907C98.108,58.541,92.241,57.799,86.197,57.799z"
      />
    </g>
  </g>
</svg>
