<?xml version="1.0" encoding="iso-8859-1"?>
<!-- Uploaded to: SVG Repo, www.svgrepo.com, Generator: SVG Repo Mixer Tools -->
<svg
  height="800px"
  width="800px"
  version="1.1"
  id="Layer_1"
  xmlns="http://www.w3.org/2000/svg"
  xmlns:xlink="http://www.w3.org/1999/xlink"
  viewBox="0 0 379.673 379.673"
  xml:space="preserve"
>
  <g>
    <path
      style="fill: #b36f0f"
      d="M187.289,262.762c-8.178,0-14.808,6.63-14.808,14.81v77.403h-27.785
		c-6.82,0-12.349,5.529-12.349,12.349s5.529,12.349,12.349,12.349h45.053c6.82,0,12.349-5.529,12.349-12.349v-89.752
		C202.098,269.393,195.468,262.762,187.289,262.762z"
    />
    <path
      style="fill: #d98712"
      d="M249.866,262.762c-8.178,0-14.808,6.63-14.808,14.81v77.403h-27.785
		c-6.82,0-12.349,5.529-12.349,12.349s5.529,12.349,12.349,12.349h45.053c6.82,0,12.349-5.529,12.349-12.349v-89.752
		C264.675,269.393,258.045,262.762,249.866,262.762z"
    />
    <path
      style="fill: #ffb648"
      d="M342.656,131.671c-7.899,0-14.303,6.404-14.303,14.303v4.517
		c-15.239-13.679-35.378-22.008-57.467-22.008h-59.717v-39.35c0-37.521-27.244-68.662-63.024-74.769l1.265-1.265
		c2.577-2.578,2.577-6.755,0-9.333c-2.577-2.576-6.756-2.576-9.333,0l-4.854,4.853v-2.02c0-3.644-2.954-6.599-6.599-6.599
		c-3.644,0-6.599,2.955-6.599,6.599v7.841c-35.573,6.28-62.604,37.32-62.604,74.694v100.611
		c0,61.239,49.646,110.885,110.885,110.885h100.579c47.537,0,86.073-38.537,86.073-86.073v-68.582
		C356.959,138.075,350.555,131.671,342.656,131.671z"
    />
    <path
      style="fill: #ff9e16"
      d="M292.771,172.76c1.799,0,3.257,1.458,3.257,3.256l0.019,0.001
		c-1.713,45.831-39.409,82.462-85.659,82.462s-83.946-36.631-85.658-82.462l0.019-0.001c0-1.798,1.458-3.256,3.256-3.256
		L292.771,172.76L292.771,172.76z"
    />
    <path
      style="fill: #d98712"
      d="M105.839,92.885H45.5c-12.584,0-22.785,10.201-22.785,22.786c0,12.583,10.201,22.784,22.785,22.784
		h60.339c12.583,0,22.786-10.201,22.786-22.784C128.624,103.086,118.422,92.885,105.839,92.885z"
    />
    <circle style="fill: #333e48" cx="131.681" cy="73.226" r="7.97" />
  </g>
</svg>
