<?xml version="1.0" encoding="iso-8859-1"?>
<!-- Uploaded to: SVG Repo, www.svgrepo.com, Generator: SVG Repo Mixer Tools -->
<svg
  height="800px"
  width="800px"
  version="1.1"
  id="Layer_1"
  xmlns="http://www.w3.org/2000/svg"
  xmlns:xlink="http://www.w3.org/1999/xlink"
  viewBox="0 0 424.938 424.938"
  xml:space="preserve"
>
  <g>
    <g>
      <path
        style="fill: #ed9900"
        d="M179.741,271.091l-6.632,151.666c0,1.205-0.975,2.18-2.18,2.18h-19.673
			c-1.204,0-2.18-0.975-2.18-2.18l-6.633-151.666H179.741z"
      />
      <path
        style="fill: #333e48"
        d="M148.674,413.535l0.403,9.223c0,1.205,0.976,2.18,2.18,2.18h19.673c1.204,0,2.18-0.975,2.18-2.18
			l0.403-9.223H148.674z"
      />
    </g>
    <g>
      <path
        style="fill: #ed9900"
        d="M297.997,271.091l-6.632,151.666c0,1.205-0.975,2.18-2.179,2.18h-19.674
			c-1.204,0-2.18-0.975-2.18-2.18l-6.631-151.666H297.997z"
      />
      <path
        style="fill: #333e48"
        d="M266.93,413.535l0.403,9.223c0,1.205,0.976,2.18,2.18,2.18h19.674c1.204,0,2.179-0.975,2.179-2.18
			l0.404-9.223H266.93z"
      />
    </g>
    <path
      style="fill: #65513c"
      d="M261.392,0c-2.936,0-5.315,2.379-5.315,5.316v18.963h10.631V5.316
		C266.708,2.379,264.328,0,261.392,0z"
    />
    <path
      style="fill: #65513c"
      d="M278.111,0c-2.935,0-5.315,2.379-5.315,5.316v18.963h10.631V5.316
		C283.428,2.379,281.048,0,278.111,0z"
    />
    <g>
      <path
        style="fill: #ffb648"
        d="M86.79,275.396c-1.774,0-3.214-1.44-3.214-3.215c0-23.143,18.828-41.972,41.971-41.972
			c1.775,0,3.215,1.439,3.215,3.214c0,1.775-1.44,3.215-3.215,3.215c-19.599,0-35.542,15.944-35.542,35.543
			C90.005,273.956,88.566,275.396,86.79,275.396z"
      />
      <path
        style="fill: #65513c"
        d="M92.806,277.827l-1.384,7.668c-0.462,2.558-2.909,4.257-5.467,3.795
			c-1.983-0.358-3.452-1.922-3.795-3.795l-1.383-7.668c-0.6-3.322,1.605-6.5,4.929-7.1c3.322-0.6,6.5,1.608,7.1,4.929
			C92.937,276.388,92.929,277.135,92.806,277.827z"
      />
    </g>
    <path
      style="fill: #ffb648"
      d="M328.439,35.697c-11.661,0-22.211-4.757-29.813-12.438h-0.005c-3.857-4.611-9.65-7.547-16.132-7.547
		c-0.146,0-0.289,0.019-0.435,0.021v-0.021h-18.297c-11.171,0-20.282,8.716-20.964,19.715l-0.024,0.003l-14.47,181.278h-68.095
		c-30.035,0-54.383,24.349-54.383,54.382c0,30.035,24.348,54.382,54.383,54.382h88.933c30.034,0,54.383-24.348,54.383-54.382
		v-54.382l-9.472-149.37h34.391c8.736,0,15.82-7.083,15.82-15.821C344.26,42.78,337.176,35.697,328.439,35.697z"
    />
    <g>
      <path
        style="fill: #ffb648"
        d="M143.119,271.091l-6.632,151.666c0,1.205-0.976,2.18-2.18,2.18h-19.673
			c-1.204,0-2.18-0.975-2.18-2.18l-6.633-151.666H143.119z"
      />
      <path
        style="fill: #333e48"
        d="M112.052,413.535l0.403,9.223c0,1.205,0.976,2.18,2.18,2.18h19.673c1.204,0,2.18-0.975,2.18-2.18
			l0.403-9.223H112.052z"
      />
    </g>
    <g>
      <path
        style="fill: #ffb648"
        d="M261.375,271.091l-6.632,151.666c0,1.205-0.975,2.18-2.18,2.18H232.89
			c-1.205,0-2.181-0.975-2.181-2.18l-6.631-151.666H261.375z"
      />
      <path
        style="fill: #333e48"
        d="M230.307,413.535l0.402,9.223c0,1.205,0.976,2.18,2.181,2.18h19.673c1.204,0,2.18-0.975,2.18-2.18
			l0.404-9.223H230.307z"
      />
    </g>
    <g>
      <path
        style="fill: #65513c"
        d="M188.902,216.709h-28.697c-0.23,0-0.458,0.014-0.689,0.017c-3.883,3.811-6.298,9.112-6.298,14.983
			c0,11.597,9.402,21,21.001,21s21-9.402,21-21C195.22,225.83,192.796,220.521,188.902,216.709z"
      />
      <path
        style="fill: #65513c"
        d="M235.48,141.465c-0.398,0-0.785,0.041-1.179,0.059l-4.132,51.747c1.715,0.353,3.49,0.54,5.311,0.54
			c14.456,0,26.174-11.718,26.174-26.174C261.654,153.184,249.936,141.465,235.48,141.465z"
      />
      <circle style="fill: #65513c" cx="242.727" cy="257.883" r="26.174" />
      <path
        style="fill: #65513c"
        d="M296.204,101.311c-13.016,1.514-23.121,12.562-23.121,25.98c0,14.455,11.718,26.173,26.173,26.173
			c0.086,0,0.168-0.011,0.254-0.012L296.204,101.311z"
      />
      <circle style="fill: #65513c" cx="279.22" cy="208.995" r="14.274" />
      <path
        style="fill: #65513c"
        d="M285.601,252.709c0,9.897,8.022,17.919,17.919,17.919v-35.837
			C293.623,234.791,285.601,242.813,285.601,252.709z"
      />
      <circle style="fill: #65513c" cx="256.174" cy="95.653" r="11.9" />
      <circle style="fill: #65513c" cx="192.771" cy="286.781" r="11.899" />
      <circle style="fill: #65513c" cx="141.319" cy="262.981" r="11.9" />
    </g>
    <circle style="fill: #333e48" cx="278.113" cy="36.141" r="5.206" />
    <path
      style="fill: #ed9900"
      d="M330.594,35.861c-5.591,7.841-8.891,17.43-8.891,27.793c0,1.242,0.061,2.468,0.154,3.685h6.582
		c8.736,0,15.82-7.083,15.82-15.821C344.26,43.514,338.308,36.915,330.594,35.861z"
    />
    <g>
      <path
        style="fill: #ffb648"
        d="M238.903,33.396c-5.675-5.674-7.072-12.516-3.32-16.267c3.75-3.751,10.592-2.353,16.267,3.322
			c5.675,5.675,7.072,12.516,3.321,16.268C251.42,40.469,244.579,39.071,238.903,33.396z"
      />

      <ellipse
        transform="matrix(0.7071 -0.7071 0.7071 0.7071 52.835 181.3939)"
        style="fill: #ed9900"
        cx="245.379"
        cy="26.919"
        rx="4.696"
        ry="9.393"
      />
    </g>
  </g>
</svg>
