<?xml version="1.0" encoding="iso-8859-1"?>
<!-- Uploaded to: SVG Repo, www.svgrepo.com, Generator: SVG Repo Mixer Tools -->
<svg
  height="800px"
  width="800px"
  version="1.1"
  id="Layer_1"
  xmlns="http://www.w3.org/2000/svg"
  xmlns:xlink="http://www.w3.org/1999/xlink"
  viewBox="0 0 403.613 403.613"
  xml:space="preserve"
>
  <g>
    <g>
      <path
        style="fill: #5f7585"
        d="M167.081,347.743c-1.031-7.29-7.258-12.904-14.811-12.987V231.018
			c0-8.123-6.645-14.769-14.77-14.769H93.196c-8.123,0-14.77,6.646-14.77,14.769v104.375c0,7.998,6.484,14.481,14.483,14.481h72.529
			c0.938,0,1.699-0.761,1.699-1.699C167.137,348.026,167.118,347.881,167.081,347.743z"
      />
      <path
        style="opacity: 0.3; fill: #7d868c; enable-background: new"
        d="M138.221,310.937c-1.723,0-3.117-1.396-3.117-3.119
			c0-1.721,1.395-3.117,3.117-3.117h14.049v6.236H138.221z"
      />
      <path
        style="fill: #d1d3d3"
        d="M161.786,338.267c2.807,2.345,4.76,5.68,5.295,9.476c0.037,0.138,0.057,0.283,0.057,0.433
			c0,0.938-0.762,1.699-1.699,1.699H157.6v-3.713C157.6,342.878,159.26,339.983,161.786,338.267z"
      />
    </g>
    <g>
      <path
        style="fill: #5f7585"
        d="M297.229,347.743c-1.031-7.29-7.258-12.904-14.811-12.987V231.018
			c0-8.123-6.645-14.769-14.77-14.769h-44.305c-8.121,0-14.768,6.646-14.768,14.769v104.375c0,7.998,6.482,14.481,14.48,14.481
			h72.529c0.938,0,1.699-0.761,1.699-1.699C297.286,348.026,297.266,347.881,297.229,347.743z"
      />
      <path
        style="opacity: 0.3; fill: #7d868c; enable-background: new"
        d="M268.37,310.937c-1.723,0-3.117-1.396-3.117-3.119
			c0-1.721,1.395-3.117,3.117-3.117h14.049v6.236H268.37z"
      />
      <path
        style="fill: #d1d3d3"
        d="M291.932,338.267c2.809,2.345,4.762,5.68,5.297,9.476c0.037,0.138,0.057,0.283,0.057,0.433
			c0,0.938-0.762,1.699-1.699,1.699h-7.838v-3.713C287.749,342.878,289.409,339.983,291.932,338.267z"
      />
    </g>
    <g>
      <path
        style="fill: #7c98ab"
        d="M62.577,144.7c-0.674,0-1.35-0.257-1.863-0.772c-12.705-12.706-33.383-12.708-46.092-0.001
			c-1.029,1.029-2.699,1.029-3.729-0.001c-1.031-1.03-1.031-2.7,0-3.73c14.766-14.764,38.787-14.762,53.549,0.001
			c1.029,1.03,1.029,2.7,0,3.73C63.926,144.443,63.253,144.7,62.577,144.7z"
      />
      <path
        style="fill: #5f7585"
        d="M14.544,149.251l-6.752,4.688c-2.252,1.563-5.346,1.006-6.908-1.247
			c-1.213-1.746-1.143-4.009,0-5.662l4.689-6.751c2.029-2.925,6.045-3.652,8.971-1.621c2.928,2.032,3.649,6.049,1.619,8.974
			C15.716,148.275,15.151,148.826,14.544,149.251z"
      />
    </g>
    <path
      style="fill: #7c98ab"
      d="M210.561,103.891c49.863,0,90.285,40.422,90.285,90.285s-40.422,90.285-90.285,90.285H104.764
		c-49.863,0-90.285-40.422-90.285-90.285s40.422-90.285,90.285-90.285H210.561z"
    />
    <g>
      <path
        style="fill: #7c98ab"
        d="M129.682,347.743c-1.031-7.29-7.258-12.904-14.813-12.987v-94.244
			c0-8.123-6.645-14.768-14.768-14.768H55.798c-8.123,0-14.77,6.646-14.77,14.768v94.881c0,7.998,6.484,14.481,14.481,14.481h72.531
			c0.938,0,1.697-0.761,1.697-1.699C129.737,348.026,129.718,347.881,129.682,347.743z"
      />
      <path
        style="fill: #d1d3d3"
        d="M124.385,338.267c2.809,2.345,4.762,5.68,5.297,9.476c0.035,0.138,0.055,0.283,0.055,0.433
			c0,0.938-0.76,1.699-1.697,1.699h-7.838v-3.713C120.202,342.878,121.862,339.983,124.385,338.267z"
      />
      <path
        style="opacity: 0.3; fill: #7d868c; enable-background: new"
        d="M100.823,310.937c-1.723,0-3.119-1.396-3.119-3.119
			c0-1.721,1.396-3.117,3.119-3.117h14.047v6.236H100.823z"
      />
    </g>
    <g>
      <path
        style="fill: #7c98ab"
        d="M259.831,347.743c-1.031-7.29-7.258-12.904-14.813-12.987v-94.244
			c0-8.123-6.645-14.768-14.768-14.768h-44.305c-8.123,0-14.77,6.646-14.77,14.768v94.881c0,7.998,6.484,14.481,14.482,14.481
			h72.529c0.938,0,1.697-0.761,1.697-1.699C259.885,348.026,259.866,347.881,259.831,347.743z"
      />
      <path
        style="fill: #d1d3d3"
        d="M254.534,338.267c2.807,2.345,4.762,5.68,5.297,9.476c0.035,0.138,0.055,0.283,0.055,0.433
			c0,0.938-0.76,1.699-1.697,1.699h-7.838v-3.713C250.35,342.878,252.009,339.983,254.534,338.267z"
      />
      <path
        style="opacity: 0.3; fill: #7d868c; enable-background: new"
        d="M230.971,310.937c-1.723,0-3.117-1.396-3.117-3.119
			c0-1.721,1.395-3.117,3.117-3.117h14.047v6.236H230.971z"
      />
    </g>
    <g>
      <g>
        <path
          style="fill: #7c98ab"
          d="M315.549,79.815c-4.781,0-8.672-3.89-8.672-8.672c0-0.313,0.018-0.632,0.051-0.948l0.016-0.137
				l0.02-0.136c1.365-9.227,9.433-16.185,18.77-16.185c9.338,0,17.408,6.958,18.769,16.186l0.016,0.108l0.014,0.109
				c0.039,0.332,0.059,0.669,0.059,1.002c0,4.782-3.891,8.672-8.672,8.672L315.549,79.815L315.549,79.815z"
        />
        <path
          style="fill: #ff9c9f"
          d="M335.919,72.711c0.865,0,1.566-0.703,1.566-1.568c0-0.062-0.002-0.122-0.01-0.181
				c-0.846-5.726-5.779-10.12-11.742-10.12c-5.961,0-10.895,4.394-11.74,10.12c-0.008,0.059-0.012,0.12-0.012,0.181
				c0,0.866,0.703,1.568,1.568,1.568H335.919z"
        />
      </g>
      <path
        style="fill: #7c98ab"
        d="M349.815,109.171h-9.482c-9.889-30.707-38.682-52.932-72.676-52.932
			c-42.168,0-76.35,34.183-76.35,76.349v47.283c0,20.377,16.52,36.897,36.896,36.897h121.611c29.713,0,53.799-24.086,53.799-53.799
			C403.614,133.258,379.528,109.171,349.815,109.171z"
      />
      <circle style="fill: #333e48" cx="273.527" cy="101.782" r="6.925" />
      <circle style="fill: #333e48" cx="325.733" cy="101.782" r="6.926" />
      <path
        style="fill: #fbe298"
        d="M341.444,180.247v14.058c0,2.454-2.008,4.463-4.461,4.463h-14.059
			c-2.455,0-4.463-2.009-4.463-4.463v-14.058H341.444z"
      />
      <path
        style="fill: #fbe298"
        d="M400.759,180.247v14.058c0,2.454-2.008,4.463-4.463,4.463h-14.057
			c-2.455,0-4.465-2.009-4.465-4.463v-14.058H400.759z"
      />
      <g>
        <path
          style="fill: #7c98ab"
          d="M202.612,79.815c-4.783,0-8.672-3.89-8.672-8.672c0-0.313,0.018-0.632,0.051-0.948l0.016-0.137
				l0.02-0.136c1.363-9.227,9.434-16.185,18.77-16.185s17.406,6.958,18.77,16.186l0.016,0.108l0.012,0.109
				c0.039,0.332,0.059,0.669,0.059,1.002c0,4.782-3.889,8.672-8.672,8.672L202.612,79.815L202.612,79.815z"
        />
        <path
          style="fill: #ff9c9f"
          d="M222.979,72.711c0.867,0,1.568-0.703,1.568-1.568c0-0.062-0.004-0.122-0.01-0.181
				c-0.846-5.726-5.781-10.12-11.742-10.12s-10.896,4.394-11.742,10.12c-0.006,0.059-0.01,0.12-0.01,0.181
				c0,0.866,0.701,1.568,1.568,1.568H222.979z"
        />
      </g>
      <g>
        <path
          style="fill: #7c98ab"
          d="M318.315,137.023c-3.553,0-6.443-2.891-6.443-6.443c0-0.232,0.012-0.47,0.039-0.704l0.01-0.101
				l0.016-0.101c1.014-6.855,7.01-12.025,13.945-12.025c6.936,0,12.932,5.169,13.945,12.025l0.01,0.08l0.01,0.082
				c0.029,0.247,0.045,0.497,0.045,0.744c0,3.553-2.891,6.443-6.443,6.443L318.315,137.023L318.315,137.023z"
        />
        <path
          style="fill: #5f7585"
          d="M333.448,131.745c0.643,0,1.164-0.522,1.164-1.166c0-0.045-0.002-0.09-0.008-0.134
				c-0.629-4.254-4.295-7.519-8.723-7.519c-4.43,0-8.096,3.265-8.725,7.519c-0.004,0.044-0.006,0.089-0.006,0.134
				c0,0.644,0.521,1.166,1.164,1.166H333.448z"
        />
      </g>
      <g>
        <path
          style="fill: #7c98ab"
          d="M372.13,137.023c-3.551,0-6.441-2.891-6.441-6.443c0-0.232,0.012-0.47,0.037-0.704l0.012-0.101
				l0.014-0.101c1.014-6.855,7.01-12.025,13.945-12.025c6.938,0,12.932,5.169,13.945,12.025l0.012,0.08l0.01,0.082
				c0.029,0.247,0.043,0.497,0.043,0.744c0,3.553-2.891,6.443-6.441,6.443L372.13,137.023L372.13,137.023z"
        />
        <path
          style="fill: #5f7585"
          d="M387.264,131.745c0.643,0,1.164-0.522,1.164-1.166c0-0.045-0.004-0.09-0.008-0.134
				c-0.629-4.254-4.295-7.519-8.725-7.519c-4.428,0-8.094,3.265-8.723,7.519c-0.006,0.044-0.008,0.089-0.008,0.134
				c0,0.644,0.521,1.166,1.164,1.166H387.264z"
        />
      </g>
    </g>
  </g>
</svg>
