<?xml version="1.0" encoding="iso-8859-1"?>
<!-- Uploaded to: SVG Repo, www.svgrepo.com, Generator: SVG Repo Mixer Tools -->
<svg
  height="800px"
  width="800px"
  version="1.1"
  id="Layer_1"
  xmlns="http://www.w3.org/2000/svg"
  xmlns:xlink="http://www.w3.org/1999/xlink"
  viewBox="0 0 380.867 380.867"
  xml:space="preserve"
>
  <g>
    <path
      style="fill: #65513c"
      d="M193.645,368.148c0,6.063,4.913,10.975,10.976,10.975h55.193c3.717,0,6.731-3.014,6.731-6.73
		c0-12.925-10.479-23.402-23.403-23.402h-18.58V245.315c0-32.881-26.655-59.536-59.535-59.536
		c-32.881,0-59.537,26.655-59.537,59.536s26.656,59.536,59.537,59.536c15.806,0,28.618,12.814,28.618,28.619v23.396L193.645,368.148
		L193.645,368.148z"
    />
    <path
      style="fill: #65513c"
      d="M339.648,216.699h-42.191v-32.375c0-8.539-6.92-15.457-15.456-15.457s-15.455,6.918-15.455,15.457
		v47.832c0,8.535,6.919,15.453,15.455,15.453h57.647c8.535,0,15.455-6.918,15.455-15.453
		C355.103,223.617,348.184,216.699,339.648,216.699z"
    />
    <g>
      <path
        style="fill: #bf9b5f"
        d="M380.867,52.532c0-8.151-6.606-14.758-14.76-14.758H261.441c-14.457,0-26.178,11.72-26.178,26.176
			v54.088c0,12.719-10.311,23.03-23.03,23.03h-31.112c-41.77,0-75.631,33.861-75.631,75.629v95.306
			c0,18.278-14.817,33.098-33.097,33.098H17.012C7.617,345.101,0,352.717,0,362.113c0,9.393,7.617,17.01,17.012,17.01h96.326
			c20.509,0,37.135-16.625,37.135-37.135V285.84c9.371,4.16,19.734,6.489,30.648,6.489h33.143c45.863,0,83.044-37.179,83.044-83.042
			v-68.219c0-16.293,13.208-29.501,29.501-29.501l-0.081-0.218C357.037,108.859,380.867,83.487,380.867,52.532z"
      />
      <g>
        <path
          style="fill: #bf9b5f"
          d="M278.319,29.121c0-15.12-13.69-27.377-13.69-27.377s-13.685,12.257-13.685,27.377
				c0,15.118,13.685,27.375,13.685,27.375S278.319,44.239,278.319,29.121z"
        />
        <path
          style="fill: #ff9c9f"
          d="M272.828,29.121c0-9.056-8.199-16.393-8.199-16.393s-8.194,7.337-8.194,16.393
				c0,9.052,8.194,16.39,8.194,16.39S272.828,38.173,272.828,29.121z"
        />
      </g>
      <path
        style="fill: #333e48"
        d="M315.24,60.388c0-3.968-3.216-7.184-7.186-7.184s-7.186,3.216-7.186,7.184
			c0,3.973,3.216,7.189,7.186,7.189C312.024,67.576,315.24,64.36,315.24,60.388z"
      />
    </g>
    <path
      style="fill: #9c7f4d"
      d="M172.385,368.148c0,6.063,4.914,10.975,10.977,10.975h55.193c3.717,0,6.73-3.014,6.73-6.73
		c0-12.925-10.479-23.402-23.401-23.402h-18.581V245.315c0-32.881-26.656-59.536-59.537-59.536
		c-32.879,0-59.535,26.655-59.535,59.536s26.656,59.536,59.535,59.536c15.807,0,28.619,12.814,28.619,28.619v23.396V368.148z"
    />
    <path
      style="fill: #9c7f4d"
      d="M318.389,216.699h-42.191v-32.375c0-8.539-6.92-15.457-15.457-15.457
		c-8.535,0-15.455,6.918-15.455,15.457v47.832c0,8.535,6.92,15.453,15.455,15.453h57.648c8.537,0,15.455-6.918,15.455-15.453
		C333.844,223.617,326.926,216.699,318.389,216.699z"
    />
  </g>
</svg>
