<?xml version="1.0" encoding="iso-8859-1"?>
<!-- Uploaded to: SVG Repo, www.svgrepo.com, Generator: SVG Repo Mixer Tools -->
<svg
  height="800px"
  width="800px"
  version="1.1"
  id="Layer_1"
  xmlns="http://www.w3.org/2000/svg"
  xmlns:xlink="http://www.w3.org/1999/xlink"
  viewBox="0 0 377.814 377.814"
  xml:space="preserve"
>
  <g>
    <path
      style="fill: #d9c47c"
      d="M311.678,340.703V238.215c0-13.804-11.191-24.996-24.995-24.996
		c-13.805,0-24.996,11.191-24.996,24.996v114.603c0,13.805,11.191,24.996,24.996,24.996h45.143c3.956,0,7.162-3.206,7.162-7.162
		C338.987,354.973,326.991,342.102,311.678,340.703z"
    />
    <path
      style="fill: #d9c47c"
      d="M153.136,175.861c-23.137,0-41.893,18.756-41.893,41.893v41.295
		c-14.452,2.467-25.455,15.043-25.455,30.198v63.571c0,13.805,11.191,24.996,24.996,24.996h45.143c3.956,0,7.162-3.206,7.162-7.162
		c0-15.363-11.52-28.022-26.391-29.843v-32.317h9.31c27.073,0,49.02-21.946,49.02-49.019v-41.719
		C195.028,194.617,176.272,175.861,153.136,175.861z"
    />
    <path
      style="fill: #fadf8d"
      d="M301.141,150.471H87.988c-13.099,0-25.148,4.463-34.738,11.935
		C26.445,168.27,6.312,192.182,6.312,220.72v19.631h12V220.72c0-15.264,7.215-28.866,18.404-37.603
		c-3.401,7.271-5.311,15.379-5.311,23.937v54.952c-9.864,5.092-16.613,15.375-16.613,27.241v63.571
		c0,13.805,11.191,24.996,24.996,24.996h45.143c3.956,0,7.162-3.206,7.162-7.162c0-15.363-11.52-28.022-26.391-29.843v-32.317h9.311
		c14.804,0,28.064-6.571,37.053-16.946h78.625v61.272c0,13.805,11.191,24.996,24.996,24.996h45.143c3.956,0,7.162-3.206,7.162-7.162
		c0-15.679-11.996-28.55-27.309-29.949v-49.157h13.503c37.755,0,68.36-30.606,68.36-68.361v-51.31
		C322.545,160.054,312.962,150.471,301.141,150.471z"
    />
    <path
      style="fill: #ff9e16"
      d="M22.287,236.752l-2.295,12.716c-0.765,4.239-4.823,7.058-9.063,6.292
		c-3.29-0.594-5.725-3.187-6.292-6.292l-2.295-12.716c-0.993-5.508,2.665-10.779,8.173-11.772
		c5.509-0.994,10.778,2.666,11.772,8.173C22.505,234.366,22.489,235.605,22.287,236.752z"
    />
    <g>
      <g>
        <path
          style="fill: #fadf8d"
          d="M337.313,46.823c11.017-7.713,26.2-5.036,33.916,5.98c7.713,11.017,5.035,26.201-5.98,33.915
				L337.313,46.823z"
        />
        <path
          style="fill: #bf9b5f"
          d="M342.279,53.916c7.101-4.971,16.886-3.246,21.857,3.854c4.972,7.1,3.245,16.885-3.854,21.856
				L342.279,53.916z"
        />
      </g>
      <circle style="fill: #ff9e16" cx="253.221" cy="120.734" r="120.734" />
      <path
        style="fill: #fadf8d"
        d="M366.63,123.367l-26.932-40.805c-0.749-1.21-1.531-2.398-2.35-3.56l-0.019-0.029l-0.001,0.001
			c-9.764-13.869-24.261-24.161-41.142-28.54c-42.981-5.481-74.712,30.199-74.712,70.3c0,40.111,32.517,72.627,72.627,72.627h51.654
			c15.242,0,27.599-12.357,27.599-27.599V141.41C373.355,134.509,370.816,128.205,366.63,123.367z"
      />
      <circle style="fill: #333e48" cx="294.169" cy="113.02" r="7.305" />
      <path
        style="fill: #333e48"
        d="M361.083,142.849c-4.523,4.69-12.059,4.824-16.745,0.299l-5.228-5.048
			c-4.688-4.526-3.192-8.229,3.324-8.229h19.317c6.516,0,8.146,3.837,3.623,8.528L361.083,142.849z"
      />
      <g>
        <path
          style="fill: #fadf8d"
          d="M220.352,55.752c-11.017-7.714-26.2-5.037-33.915,5.98c-7.713,11.017-5.036,26.201,5.979,33.915
				L220.352,55.752z"
        />
        <path
          style="fill: #bf9b5f"
          d="M215.388,62.845c-7.102-4.971-16.887-3.246-21.857,3.854c-4.972,7.099-3.246,16.885,3.853,21.856
				L215.388,62.845z"
        />
      </g>
    </g>
  </g>
</svg>
