<?xml version="1.0" encoding="iso-8859-1"?>
<!-- Uploaded to: SVG Repo, www.svgrepo.com, Generator: SVG Repo Mixer Tools -->
<svg
  height="800px"
  width="800px"
  version="1.1"
  id="Layer_1"
  xmlns="http://www.w3.org/2000/svg"
  xmlns:xlink="http://www.w3.org/1999/xlink"
  viewBox="0 0 398.477 398.477"
  xml:space="preserve"
>
  <g>
    <g>
      <path
        style="fill: #ff9c9f"
        d="M369.322,275.728v-24.742c0-8.05,6.526-14.577,14.577-14.577s14.577,6.527,14.577,14.577v24.742
			c0,8.051-6.526,14.578-14.577,14.578C375.849,290.307,369.322,283.779,369.322,275.728z"
      />
      <path
        style="fill: #4d3d2d"
        d="M369.322,250.986c0-27.656-22.501-50.156-50.157-50.156c-27.658,0-50.159,22.5-50.159,50.156
			v33.239c0,8.05-6.526,14.577-14.577,14.577s-14.577-6.527-14.577-14.577v-33.239c0-43.733,35.579-79.313,79.314-79.313
			c43.733,0,79.311,35.579,79.311,79.313L369.322,250.986L369.322,250.986z"
      />
    </g>
    <path
      style="fill: #4d3d2d"
      d="M185.466,330.52h-50.805c-33.479,0-60.718-27.237-60.718-60.717v-33.006
		c0-14.273-11.612-25.887-25.887-25.887c-14.274,0-25.887,11.613-25.887,25.887c0,6.123-4.964,11.085-11.085,11.085
		C4.963,247.882,0,242.92,0,236.797c0-26.498,21.559-48.057,48.057-48.057c26.499,0,48.057,21.559,48.057,48.057v33.006
		c0,21.256,17.293,38.548,38.548,38.548h50.805c6.121,0,11.085,4.964,11.085,11.085C196.551,325.558,191.587,330.52,185.466,330.52z
		"
    />
    <path
      style="fill: #db8689"
      d="M343.072,332.826c5.71,0,10.339,4.629,10.339,10.338c0,5.711-4.629,10.34-10.339,10.34h-32.088
		c-5.71,0-10.339-4.629-10.339-10.34c0-5.709,4.629-10.338,10.339-10.338H343.072z"
    />
    <path
      style="fill: #4d3d2d"
      d="M266.553,248.277c-29.058,0-52.613,23.556-52.613,52.612c0,29.059,23.556,52.614,52.613,52.614
		h52.612V300.89C319.165,271.833,295.609,248.277,266.553,248.277z"
    />
    <path
      style="fill: #65513c"
      d="M137.605,234.326c0-41.438,33.594-75.032,75.032-75.032c41.44,0,75.033,33.595,75.033,75.032v44.143
		c0,41.44-33.593,75.035-75.033,75.035c-41.438,0-75.032-33.595-75.032-75.035V234.326z"
    />
    <g>
      <path
        style="fill: #65513c"
        d="M265.205,44.973c44.367,0,80.335,35.967,80.335,80.335c0,44.367-35.968,80.335-80.335,80.335
			h-44.751c-44.367,0-80.335-35.968-80.335-80.335c0-44.368,35.968-80.335,80.335-80.335
			C220.454,44.973,265.205,44.973,265.205,44.973z"
      />
      <path
        style="fill: #ff9c9f"
        d="M341.109,151.621c2.859-8.244,4.431-17.093,4.431-26.313c0-11.007-2.218-21.492-6.225-31.044
			c-6.309-4.703-13.544-8.229-21.382-10.26c-9.872,3.187-18.097,10.043-23.033,18.982c-6.313-11.433-17.996-19.473-31.643-20.754
			c-31.906,2.436-57.043,29.074-57.043,61.606c0,33.193,26.18,60.239,59.014,61.703c0.764,0.061,1.547,0.102,2.374,0.102h48.76
			c18.052,0,32.685-14.634,32.685-32.685C349.046,164.802,346.051,157.348,341.109,151.621z"
      />
      <circle style="fill: #333e48" cx="251.903" cy="124.822" r="6.811" />
      <circle style="fill: #333e48" cx="331.816" cy="124.822" r="6.811" />
      <path
        style="fill: #333e48"
        d="M290.32,152.905c-0.642,0-1.285-0.247-1.774-0.736l-4.135-4.136c-0.979-0.98-0.979-2.569,0-3.548
			c0.981-0.981,2.569-0.981,3.55,0l4.134,4.135c0.98,0.979,0.98,2.57,0,3.549C291.604,152.658,290.962,152.905,290.32,152.905z"
      />
      <path
        style="fill: #333e48"
        d="M309.867,152.905c-0.643,0-1.286-0.247-1.775-0.736c-0.98-0.979-0.98-2.57,0-3.549l4.133-4.135
			c0.978-0.981,2.569-0.981,3.55,0c0.98,0.979,0.98,2.567,0,3.548l-4.134,4.136C311.15,152.658,310.508,152.905,309.867,152.905z"
      />
      <g>
        <path
          style="fill: #65513c"
          d="M159.145,95.145c-16.658,0-30.163,13.506-30.163,30.163c0,16.659,13.505,30.165,30.163,30.165
				V95.145z"
        />
        <path
          style="fill: #ff9c9f"
          d="M159.145,106.799c-10.224,0-18.51,8.287-18.51,18.509c0,10.223,8.286,18.511,18.51,18.511V106.799
				z"
        />
      </g>
    </g>
    <g>
      <path
        style="fill: #ff9c9f"
        d="M253.514,332.826c5.711,0,10.34,4.629,10.34,10.338c0,5.711-4.629,10.34-10.34,10.34h-32.087
			c-5.711,0-10.339-4.629-10.339-10.34c0-5.709,4.628-10.338,10.339-10.338H253.514z"
      />
      <path
        style="fill: #65513c"
        d="M176.995,248.277c-29.058,0-52.613,23.556-52.613,52.612c0,29.059,23.556,52.614,52.613,52.614
			h52.612V300.89C229.607,271.833,206.052,248.277,176.995,248.277z"
      />
    </g>
    <g>
      <path
        style="fill: #ff9c9f"
        d="M162.392,99.451H137.65c-8.051,0-14.577-6.528-14.577-14.577c0-8.052,6.526-14.577,14.577-14.577
			h24.741c8.051,0,14.578,6.525,14.578,14.577C176.97,92.923,170.442,99.451,162.392,99.451z"
      />
      <path
        style="fill: #65513c"
        d="M137.65,99.451c-27.657,0-50.158,22.5-50.158,50.156c0,27.658,22.501,50.159,50.158,50.159h33.238
			c8.051,0,14.577,6.527,14.577,14.577c0,8.052-6.526,14.576-14.577,14.576H137.65c-43.734,0-79.314-35.577-79.314-79.313
			c0-43.733,35.579-79.311,79.314-79.311V99.451z"
      />
    </g>
  </g>
</svg>
