<?xml version="1.0" encoding="iso-8859-1"?>
<!-- Uploaded to: SVG Repo, www.svgrepo.com, Generator: SVG Repo Mixer Tools -->
<svg
  version="1.1"
  id="Layer_1"
  xmlns="http://www.w3.org/2000/svg"
  xmlns:xlink="http://www.w3.org/1999/xlink"
  viewBox="0 0 371.018 371.018"
  xml:space="preserve"
>
  <g>
    <g>
      <polygon
        style="fill: #4d3d2d"
        points="236.498,353.893 214.797,353.893 214.797,207.077 260.525,207.077 		"
      />
      <polygon
        style="fill: #333e48"
        points="214.797,341.473 214.797,353.893 236.498,353.893 238.531,341.473 		"
      />
    </g>
    <g>
      <path
        style="fill: #4d3d2d"
        d="M58.535,214.841v14.954c0,10.836-8.785,19.621-19.621,19.621v104.477h18.002l12.189-70.749
			c19.029-5.322,32.99-22.776,32.99-43.502v-24.8h-43.56V214.841z"
      />
      <polygon
        style="fill: #333e48"
        points="38.914,341.473 38.914,353.893 56.916,353.893 59.057,341.473 		"
      />
    </g>
    <rect
      x="216.346"
      y="164.521"
      style="fill: #65513c"
      width="48.795"
      height="30.681"
    />
    <path
      style="fill: #fadf8d"
      d="M265.797,94.668L265.797,94.668c0.09-0.061,0.185-0.113,0.277-0.171l30.086-18.546V29.599
		c0-6.89,5.584-12.476,12.477-12.476c6.891,0,12.475,5.586,12.475,12.476c0-6.89,5.586-12.476,12.477-12.476
		s12.477,5.586,12.477,12.476c0-6.89,5.584-12.476,12.475-12.476s12.477,5.586,12.477,12.476v48.599
		c0,17.751-14.391,32.141-32.141,32.141h-68.508l-0.004-0.012c-4.619-0.131-8.328-3.909-8.328-8.562
		C262.035,98.813,263.527,96.21,265.797,94.668z"
    />
    <path
      style="fill: #65513c"
      d="M348.438,113.612L348.438,113.612L312.29,91.514c-2.201-1.7-4.59-3.166-7.133-4.36l-0.014-0.008
		l-0.002,0.002c-4.934-2.314-10.438-3.614-16.248-3.614h-22.858c-19.242,0-36.324,9.235-47.064,23.512
		c-4.09-0.899-8.334-1.388-12.693-1.388c-23.535,0-43.836,13.817-53.256,33.779H78.484c-12.344,0-23.793,3.806-33.256,10.298
		c-4.449-2.063-12.547-0.555-20.287,4.194c-9.668,5.934-15.1,14.663-12.133,19.498c1.738,2.833,5.982,3.684,11.137,2.722
		c-2.779,6.839-4.324,14.313-4.324,22.15v31.497c0,10.836-8.785,19.621-19.621,19.621v104.477h18.002l12.191-70.749
		c13.322-3.726,24.152-13.403,29.455-25.983h118.344v96.732h21.701l16.039-98.005c20.059-4.127,36.568-17.954,44.437-36.357
		l3.502,7.819l11.398-25.439l7.129,15.912l13.682-30.533l9.957,22.225l17.949-40.058l1.133,0.269l0.002-0.002
		c2.797,0.843,5.76,1.301,8.832,1.301c16.889,0,30.582-13.692,30.582-30.583C364.336,128.874,357.91,118.808,348.438,113.612z"
    />
    <polygon
      style="fill: #333e48"
      points="177.992,341.473 177.992,353.893 199.693,353.893 201.727,341.473 	"
    />
    <polygon
      style="fill: #333e48"
      points="0,341.473 0,353.893 18.002,353.893 20.143,341.473 	"
    />
    <circle style="fill: #333e48" cx="299.035" cy="109.128" r="5.529" />
    <path
      style="fill: #fadf8d"
      d="M265.523,94.668L265.523,94.668c-0.09-0.061-0.184-0.113-0.277-0.171l-30.084-18.546V29.599
		c0-6.89-5.586-12.476-12.477-12.476s-12.477,5.586-12.477,12.476c0-6.89-5.584-12.476-12.475-12.476s-12.477,5.586-12.477,12.476
		c0-6.89-5.586-12.476-12.477-12.476s-12.475,5.586-12.475,12.476v48.599c0,17.751,14.389,32.141,32.141,32.141h68.508l0.002-0.012
		c4.619-0.131,8.33-3.909,8.33-8.562C269.287,98.813,267.795,96.21,265.523,94.668z"
    />
  </g>
</svg>
