<?xml version="1.0" encoding="iso-8859-1"?>
<!-- Uploaded to: SVG Repo, www.svgrepo.com, Generator: SVG Repo Mixer Tools -->
<svg
  height="800px"
  width="800px"
  version="1.1"
  id="Layer_1"
  xmlns="http://www.w3.org/2000/svg"
  xmlns:xlink="http://www.w3.org/1999/xlink"
  viewBox="0 0 381.348 381.348"
  xml:space="preserve"
>
  <g>
    <path
      style="fill: #a3382a"
      d="M353.778,236.537c-10.494,0-19,8.508-19,19c0,13.418-10.916,24.334-24.333,24.334
		s-24.333-10.916-24.333-24.334v-160.1C286.111,42.729,243.382,0,190.674,0S95.237,42.729,95.237,95.438v160.1
		c0,13.418-10.916,24.334-24.334,24.334S46.57,268.955,46.57,255.537c0-10.492-8.506-19-19-19s-19,8.508-19,19
		c0,34.371,27.963,62.334,62.333,62.334s62.334-27.963,62.334-62.334v-57.863h12.437v164.674c0,10.494,8.506,19,19,19
		s19-8.506,19-19V197.674h14v164.674c0,10.494,8.506,19,19,19s19-8.506,19-19V197.674h12.437v57.863
		c0,34.371,27.963,62.334,62.334,62.334s62.333-27.963,62.333-62.334C372.778,245.045,364.272,236.537,353.778,236.537z"
    />
    <g>
      <g>
        <circle style="fill: #e97a6e" cx="28.257" cy="286.264" r="9.583" />
        <circle style="fill: #e94f3d" cx="28.257" cy="286.264" r="4.563" />
      </g>
      <g>
        <circle style="fill: #e97a6e" cx="55.174" cy="308.287" r="9.583" />
        <circle style="fill: #e94f3d" cx="55.174" cy="308.287" r="4.563" />
      </g>
      <g>
        <circle style="fill: #e97a6e" cx="95.237" cy="305.432" r="9.583" />
        <circle style="fill: #e94f3d" cx="95.237" cy="305.432" r="4.563" />
      </g>
      <g>
        <circle style="fill: #e97a6e" cx="118.174" cy="281.701" r="9.583" />
        <circle style="fill: #e94f3d" cx="118.174" cy="281.701" r="4.563" />
      </g>
      <g>
        <circle style="fill: #e97a6e" cx="124.194" cy="243.912" r="9.583" />
        <circle style="fill: #e94f3d" cx="124.194" cy="243.912" r="4.563" />
      </g>
    </g>
    <g>
      <g>
        <circle style="fill: #e97a6e" cx="154.257" cy="244.348" r="9.583" />
        <circle style="fill: #e94f3d" cx="154.257" cy="244.348" r="4.563" />
      </g>
      <g>
        <circle style="fill: #e97a6e" cx="154.257" cy="281.682" r="9.583" />
        <circle style="fill: #e94f3d" cx="154.257" cy="281.682" r="4.563" />
      </g>
      <g>
        <circle style="fill: #e97a6e" cx="154.257" cy="319.016" r="9.583" />
        <circle style="fill: #e94f3d" cx="154.257" cy="319.016" r="4.563" />
      </g>
      <g>
        <circle style="fill: #e97a6e" cx="154.257" cy="356.35" r="9.583" />
        <circle style="fill: #e94f3d" cx="154.257" cy="356.35" r="4.563" />
      </g>
    </g>
    <g>
      <g>
        <circle style="fill: #e97a6e" cx="353.09" cy="286.264" r="9.583" />
        <circle style="fill: #e94f3d" cx="353.09" cy="286.264" r="4.563" />
      </g>
      <g>
        <circle style="fill: #e97a6e" cx="326.174" cy="308.287" r="9.583" />
        <circle style="fill: #e94f3d" cx="326.174" cy="308.287" r="4.563" />
      </g>
      <g>
        <circle style="fill: #e97a6e" cx="286.111" cy="305.432" r="9.584" />
        <circle style="fill: #e94f3d" cx="286.111" cy="305.432" r="4.563" />
      </g>
      <g>
        <circle style="fill: #e97a6e" cx="263.174" cy="281.701" r="9.583" />
        <circle style="fill: #e94f3d" cx="263.174" cy="281.701" r="4.563" />
      </g>
      <g>
        <circle style="fill: #e97a6e" cx="257.154" cy="243.912" r="9.583" />
        <circle style="fill: #e94f3d" cx="257.154" cy="243.912" r="4.563" />
      </g>
    </g>
    <g>
      <g>
        <circle style="fill: #e97a6e" cx="227.09" cy="244.348" r="9.583" />
        <circle style="fill: #e94f3d" cx="227.09" cy="244.348" r="4.563" />
      </g>
      <g>
        <circle style="fill: #e97a6e" cx="227.09" cy="281.682" r="9.583" />
        <circle style="fill: #e94f3d" cx="227.09" cy="281.682" r="4.563" />
      </g>
      <g>
        <circle style="fill: #e97a6e" cx="227.09" cy="319.016" r="9.583" />
        <circle style="fill: #e94f3d" cx="227.09" cy="319.016" r="4.563" />
      </g>
      <g>
        <circle style="fill: #e97a6e" cx="227.09" cy="356.35" r="9.583" />
        <circle style="fill: #e94f3d" cx="227.09" cy="356.35" r="4.563" />
      </g>
    </g>
    <g>
      <circle style="fill: #e97a6e" cx="112.058" cy="147.654" r="23.613" />
      <circle style="fill: #333e48" cx="112.058" cy="147.654" r="10.541" />
    </g>
    <g>
      <circle style="fill: #e97a6e" cx="269.29" cy="147.654" r="23.613" />
      <circle style="fill: #333e48" cx="269.29" cy="147.654" r="10.541" />
    </g>
    <circle style="fill: #e97a6e" cx="224.007" cy="46.682" r="11" />
    <circle style="fill: #e97a6e" cx="252.677" cy="46.682" r="7" />
    <circle style="fill: #e97a6e" cx="209.674" cy="22.348" r="7" />
  </g>
</svg>
