<?xml version="1.0" encoding="iso-8859-1"?>
<!-- Uploaded to: SVG Repo, www.svgrepo.com, Generator: SVG Repo Mixer Tools -->
<svg
  height="800px"
  width="800px"
  version="1.1"
  id="Layer_1"
  xmlns="http://www.w3.org/2000/svg"
  xmlns:xlink="http://www.w3.org/1999/xlink"
  viewBox="0 0 419.874 419.874"
  xml:space="preserve"
>
  <g>
    <path
      style="fill: #d48284"
      d="M217.738,400.947h-10.527l-19.168-78.238l27.953-18.577c9.149-5.024,15.352-14.749,15.352-25.925
		c0-16.325-13.234-29.56-29.559-29.56c-13.953,0-25.64,9.671-28.745,22.672l-0.002-0.001l-12.744,40.808l0.011,0.004
		c-0.488,1.396-0.767,2.89-0.767,4.452l22,89.792c0,7.456,6.044,13.5,13.5,13.5h31.828c1.804,0,3.266-1.462,3.266-3.265v-3.266
		C230.134,406.497,224.584,400.947,217.738,400.947z"
    />
    <path
      style="fill: #ffb648"
      d="M343.764,46.798l31.918-6.424c3.807,0,6.893-3.086,6.892-6.892c0.001-3.807-3.085-6.893-6.891-6.893
		l-31.919-6.424V46.798z"
    />
    <path
      style="fill: #5c6670"
      d="M73.017,121.715c-9.234,0-16.719,7.486-16.719,16.719v12.351h33.438v-12.351
		C89.737,129.201,82.251,121.715,73.017,121.715z"
    />
    <path
      style="fill: #333e48"
      d="M271.349,130.708v20.078H70.737v-12.351c0-9.233-7.485-16.719-16.719-16.719
		s-16.719,7.486-16.719,16.719v12.351c0,78.292,63.468,141.761,141.761,141.761c78.292,0,141.761-63.469,141.761-141.761v-20.078
		H271.349z"
    />
    <path
      style="fill: #ff9c9f"
      d="M179.738,400.947h-10.527l-19.169-78.238l27.953-18.577c9.149-5.024,15.352-14.749,15.352-25.925
		c0-16.325-13.234-29.56-29.559-29.56c-13.953,0-25.64,9.671-28.745,22.672l-0.002-0.001l-12.744,40.808l0.011,0.004
		c-0.488,1.396-0.767,2.89-0.767,4.452l22,89.792c0,7.456,6.044,13.5,13.5,13.5h31.828c1.804,0,3.266-1.462,3.266-3.265v-3.266
		C192.134,406.497,186.584,400.947,179.738,400.947z"
    />
    <path
      style="fill: #ffffff"
      d="M228.943,169.167c-0.039,0-0.076,0.006-0.116,0.006H112.423c0,6.907,1.036,13.57,2.945,19.854
		h-12.234c0,40.224,32.609,72.833,72.834,72.833s72.834-32.609,72.834-72.833C248.801,178.058,239.912,169.167,228.943,169.167z"
    />
    <path
      style="fill: #ff9c9f"
      d="M324.982,8.178h-7.794C312.341,3.14,305.535,0,297.992,0c-14.715,0-26.643,11.928-26.643,26.643
		v104.065h49.471V58.785h4.162c13.975,0,25.304-11.329,25.304-25.304S338.957,8.178,324.982,8.178z"
    />
    <circle style="fill: #333e48" cx="324.468" cy="24.104" r="3.939" />
  </g>
</svg>
