<?xml version="1.0" encoding="iso-8859-1"?>
<!-- Uploaded to: SVG Repo, www.svgrepo.com, Generator: SVG Repo Mixer Tools -->
<svg
  height="800px"
  width="800px"
  version="1.1"
  id="Layer_1"
  xmlns="http://www.w3.org/2000/svg"
  xmlns:xlink="http://www.w3.org/1999/xlink"
  viewBox="0 0 360.645 360.645"
  xml:space="preserve"
>
  <g>
    <path
      style="fill: #c8c9c9"
      d="M166.302,309.168c0.567-3.164,0.88-6.415,0.88-9.743v-36.067c0-30.292-24.557-54.848-54.848-54.848
		c-30.293,0-54.849,24.556-54.849,54.848v36.067c0,30.292,24.556,54.848,54.849,54.848h81.594c4.791,0,8.675-3.884,8.675-8.675
		C202.603,325.521,186.362,309.24,166.302,309.168z"
    />
    <path
      style="fill: #c8c9c9"
      d="M284.307,309.325v-67.371c0-16.72-13.555-30.274-30.274-30.274
		c-16.721,0-30.275,13.554-30.275,30.274v82.045c0,16.72,13.554,30.275,30.275,30.275h54.676c4.791,0,8.675-3.884,8.675-8.675
		C317.383,326.609,302.854,311.021,284.307,309.325z"
    />
    <circle style="fill: #e8e8e8" cx="41.211" cy="173.133" r="31.337" />
    <g>
      <path
        style="fill: #dadbdc"
        d="M309.324,6.371c-13.685,0-24.779,11.094-24.779,24.779v95.658h49.559V31.149
			C334.104,17.465,323.01,6.371,309.324,6.371z"
      />
      <path
        style="fill: #ff9c9f"
        d="M328.125,32.265c0.032-0.368,0.056-0.739,0.056-1.115c0-6.857-5.56-12.417-12.417-12.417
			c-6.858,0-12.418,5.559-12.418,12.417v68.61c0,6.858,5.56,12.418,12.417,12.418c6.858,0,12.418-5.56,12.418-12.418
			c0-0.375-0.023-0.745-0.056-1.112V32.265z"
      />
    </g>
    <path
      style="fill: #dadbdc"
      d="M267.431,91.144c-36.336,0-67.813,20.793-83.189,51.128h-68.687
		c-52.748,0-95.509,42.761-95.509,95.509s42.761,95.509,95.509,95.509h113.219c45.026,0,82.768-31.16,92.856-73.09
		c23.62-16.91,39.015-44.578,39.015-75.842C360.645,132.877,318.911,91.144,267.431,91.144z"
    />
    <g>
      <path
        style="fill: #dadbdc"
        d="M225.325,6.371c-13.684,0-24.779,11.094-24.779,24.779v95.658h49.559V31.149
			C250.104,17.465,239.011,6.371,225.325,6.371z"
      />
      <path
        style="fill: #ff9c9f"
        d="M244.126,32.265c0.032-0.368,0.056-0.739,0.056-1.115c0-6.857-5.56-12.417-12.417-12.417
			c-6.858,0-12.418,5.559-12.418,12.417v68.61c0,6.858,5.56,12.418,12.417,12.418c6.858,0,12.418-5.56,12.418-12.418
			c0-0.375-0.023-0.745-0.056-1.112V32.265z"
      />
    </g>
    <circle style="fill: #333e48" cx="270.571" cy="157.043" r="6.436" />
    <circle style="fill: #333e48" cx="327.288" cy="157.043" r="6.436" />
    <path
      style="fill: #ff9c9f"
      d="M310.287,182.478c-3.818,3.959-10.179,4.072-14.136,0.252l-4.412-4.261
		c-3.957-3.82-2.694-6.946,2.806-6.946h16.307c5.5,0,6.876,3.239,3.059,7.198L310.287,182.478z"
    />
    <path
      style="fill: #e8e8e8"
      d="M108.816,309.168c0.567-3.164,0.88-6.415,0.88-9.743v-36.067c0-30.292-24.557-54.848-54.848-54.848
		C24.556,208.511,0,233.067,0,263.359v36.067c0,30.292,24.556,54.848,54.849,54.848h81.594c4.791,0,8.675-3.884,8.675-8.675
		C145.117,325.521,128.877,309.24,108.816,309.168z"
    />
    <path
      style="fill: #e8e8e8"
      d="M226.82,309.325v-67.371c0-16.72-13.554-30.274-30.274-30.274s-30.274,13.554-30.274,30.274v82.045
		c0,16.72,13.555,30.275,30.274,30.275h54.677c4.791,0,8.675-3.884,8.675-8.675C259.897,326.609,245.367,311.021,226.82,309.325z"
    />
  </g>
</svg>
