<?xml version="1.0" encoding="iso-8859-1"?>
<!-- Uploaded to: SVG Repo, www.svgrepo.com, Generator: SVG Repo Mixer Tools -->
<svg
  height="800px"
  width="800px"
  version="1.1"
  id="Layer_1"
  xmlns="http://www.w3.org/2000/svg"
  xmlns:xlink="http://www.w3.org/1999/xlink"
  viewBox="0 0 448.428 448.428"
  xml:space="preserve"
>
  <g>
    <path
      style="fill: #545d66"
      d="M179.882,303.287c9.394-9.393,9.394-24.621,0-34.014c-9.392-9.392-24.62-9.392-34.012,0.001
		l-50.721,50.721c18.785,18.784,49.239,18.784,68.024,0L179.882,303.287z"
    />
    <path
      style="fill: #5c6670"
      d="M384.506,178.268v-63.923c-26.565-0.001-48.101,21.534-48.103,48.099v15.824H218.544v-55.356
		c-35.698,0-65.957,23.21-76.561,55.356H17.854C7.994,178.268,0,186.262,0,196.124c0,0.699,0.04,1.389,0.118,2.067
		c9.632,65.197,65.82,115.231,133.695,115.231h113.549c57.7,0,106.947-36.161,126.335-87.053l26.632-0.001
		c26.564,0,48.099-21.535,48.099-48.101L384.506,178.268z"
    />
    <circle style="fill: #333e48" cx="76.926" cy="205.072" r="8.366" />
    <path
      style="fill: #7d868c"
      d="M20.481,251.923c24.108,37.02,65.859,61.499,113.332,61.499h113.549
		c47.473,0,89.224-24.479,113.333-61.499H20.481z"
    />
    <path
      style="fill: #333e48"
      d="M20.481,198.419c-0.489,0-0.979-0.187-1.351-0.56c-0.746-0.746-0.746-1.956,0-2.702l6.648-6.648
		c0.746-0.746,1.957-0.746,2.702,0c0.746,0.747,0.746,1.957,0,2.702l-6.648,6.648C21.459,198.233,20.97,198.419,20.481,198.419z"
    />
    <g>
      <path
        style="fill: #333e48"
        d="M139.251,289.68c-0.367,0-0.733-0.14-1.014-0.42c-0.559-0.56-0.559-1.467,0-2.027
			c19.47-19.471,19.47-51.152,0-70.623c-0.559-0.56-0.559-1.467,0-2.026c0.56-0.56,1.467-0.56,2.027,0
			c20.588,20.588,20.588,54.088,0,74.676C139.985,289.54,139.618,289.68,139.251,289.68z"
      />
      <path
        style="fill: #333e48"
        d="M129.875,280.305c-0.366,0-0.733-0.14-1.013-0.42c-0.56-0.56-0.56-1.467,0-2.026
			c6.928-6.928,10.744-16.139,10.744-25.936c0-9.798-3.815-19.009-10.743-25.938c-0.561-0.56-0.561-1.467,0-2.026
			c0.56-0.56,1.467-0.56,2.026,0c7.47,7.469,11.583,17.4,11.583,27.964c0,10.563-4.114,20.494-11.583,27.963
			C130.608,280.165,130.242,280.305,129.875,280.305z"
      />
      <path
        style="fill: #333e48"
        d="M121.007,271.437c-0.367,0-0.733-0.141-1.013-0.42c-0.56-0.559-0.56-1.467,0-2.026
			c4.559-4.56,7.07-10.621,7.07-17.068c0-6.447-2.511-12.509-7.07-17.067c-0.56-0.559-0.56-1.467,0-2.026
			c0.56-0.56,1.467-0.56,2.026,0c5.101,5.1,7.91,11.881,7.91,19.094c0,7.212-2.81,13.994-7.91,19.094
			C121.74,271.296,121.374,271.437,121.007,271.437z"
      />
    </g>
    <path
      style="fill: #5c6670"
      d="M172.528,303.287c-9.393-9.393-9.393-24.621,0-34.014c9.392-9.392,24.62-9.392,34.012,0.001
		l50.721,50.721c-18.785,18.784-49.24,18.784-68.024,0L172.528,303.287z"
    />
  </g>
</svg>
