<?xml version="1.0" encoding="iso-8859-1"?>
<!-- Uploaded to: SVG Repo, www.svgrepo.com, Generator: SVG Repo Mixer Tools -->
<svg
  version="1.1"
  id="Layer_1"
  xmlns="http://www.w3.org/2000/svg"
  xmlns:xlink="http://www.w3.org/1999/xlink"
  viewBox="0 0 410.413 410.413"
  xml:space="preserve"
>
  <g>
    <g>
      <path
        style="fill: #ff9e16"
        d="M8.641,268.504c-4.772,0-8.641-3.868-8.641-8.641v-76.971c0-28.401,23.104-51.503,51.503-51.503
			h33.894c4.772,0,8.64,3.867,8.64,8.64c0,4.77-3.868,8.64-8.64,8.64H51.503c-18.871,0-34.223,15.353-34.223,34.224v76.971
			C17.28,264.635,13.413,268.504,8.641,268.504z"
      />
      <g>
        <polygon
          style="fill: #333e48"
          points="0,190.514 0,194.918 11.953,192.715 			"
        />
        <path
          style="fill: #333e48"
          d="M2.774,166.25c-0.686,2.003-1.264,4.057-1.701,6.163l11.324,7.803L2.774,166.25z"
        />
        <polygon
          style="fill: #333e48"
          points="0,237.035 17.28,233.854 17.28,231.574 0,228.392 			"
        />
        <path
          style="fill: #333e48"
          d="M20.65,141.678l9.663,8.517l-5.846-11.115C23.155,139.893,21.879,140.757,20.65,141.678z"
        />
        <polygon
          style="fill: #333e48"
          points="17.28,212.134 17.28,207.409 4.452,209.773 			"
        />
        <path
          style="fill: #333e48"
          d="M44.385,131.892l2.633,14.305l2.719-14.763C47.928,131.495,46.143,131.648,44.385,131.892z"
        />
        <path
          style="fill: #333e48"
          d="M21.666,166.163c0.632-1.125,1.327-2.208,2.078-3.25l-8.216-5.66L21.666,166.163z"
        />
      </g>
    </g>
    <g>
      <path
        style="fill: #b36f0f"
        d="M144.426,173.016c-19.385,0-35.1,15.715-35.1,35.1v34.75h-3.304
			c-16.551,0-29.969,13.416-29.969,29.969v54.343c0,13.5,10.945,24.444,24.444,24.444h44.146c3.869,0,7.004-3.138,7.004-7.004
			c0-15.023-11.266-27.403-25.808-29.184v-31.294h12.614c22.684,0,41.071-18.387,41.071-41.071v-34.953
			C179.525,188.73,163.811,173.016,144.426,173.016z"
      />
      <g>
        <polygon
          style="fill: #333e48"
          points="109.326,226.305 109.326,239.124 144.131,232.712 			"
        />
        <path
          style="fill: #333e48"
          d="M76.585,267.228c-0.344,1.816-0.531,3.689-0.531,5.605v10.142l43.021-7.922L76.585,267.228z"
        />
        <polygon
          style="fill: #333e48"
          points="140.428,220.178 179.525,227.379 179.525,212.978 			"
        />
        <path
          style="fill: #333e48"
          d="M165.809,273.697c4.657-4.164,8.354-9.372,10.732-15.255l-46.789,8.614L165.809,273.697z"
        />
        <polygon
          style="fill: #333e48"
          points="125.84,303.555 125.84,295.25 103.291,299.402 			"
        />
      </g>
    </g>
    <g>
      <path
        style="fill: #b36f0f"
        d="M312.58,315.328v-108.6c0-13.501-10.945-24.444-24.443-24.444c-13.5,0-24.444,10.943-24.444,24.444
			v120.448c0,13.5,10.944,24.444,24.444,24.444h44.146c3.869,0,7.004-3.138,7.004-7.004
			C339.287,329.283,327.555,316.698,312.58,315.328z"
      />
      <g>
        <polygon
          style="fill: #333e48"
          points="263.693,267.767 263.693,281.94 302.173,274.852 			"
        />
        <polygon
          style="fill: #333e48"
          points="263.693,227.665 263.693,236.445 287.533,232.056 			"
        />
        <polygon
          style="fill: #333e48"
          points="312.58,256.5 312.58,243.064 276.096,249.783 			"
        />
        <polygon
          style="fill: #333e48"
          points="282.957,212.978 312.58,218.434 312.58,207.523 			"
        />
        <polygon
          style="fill: #333e48"
          points="312.58,301.503 312.58,288.066 276.096,294.784 			"
        />
      </g>
    </g>
    <path
      style="fill: #ff9e16"
      d="M305.799,117.676H113.345c-33.752,0-61.113,27.359-61.113,61.112v71.573h202.852
		c40.777,0,73.832-33.056,73.832-73.833V140.79C328.916,128.026,318.566,117.676,305.799,117.676z"
    />
    <g>
      <polygon
        style="fill: #333e48"
        points="131.225,214.779 113.345,117.676 149.104,117.676 		"
      />
      <polygon
        style="fill: #333e48"
        points="220.508,214.779 202.628,117.676 238.388,117.676 		"
      />
      <polygon
        style="fill: #333e48"
        points="175.562,185.754 163.027,117.676 188.098,117.676 		"
      />
      <path
        style="fill: #333e48"
        d="M71.45,134.318l9.471,51.436l11.882-64.528C84.774,124.09,77.528,128.59,71.45,134.318z"
      />
      <polygon
        style="fill: #333e48"
        points="265.91,185.754 253.374,117.676 278.445,117.676 		"
      />
    </g>
    <rect
      x="286.99"
      y="152.855"
      style="fill: #e8e8e8"
      width="13.32"
      height="16.56"
    />
    <g>
      <path
        style="fill: #ff9e16"
        d="M408.086,112.204l-54.961-44.435h-31.011c-31.041,0-56.205,25.165-56.205,56.206
			s25.164,56.204,56.205,56.204h31.011c31.042,0,56.205-25.163,56.205-56.204C409.331,119.937,408.896,116,408.086,112.204z"
      />
      <path
        style="fill: #333e48"
        d="M295.024,74.726l6.547,35.558l7.547-40.986C304.13,70.479,299.398,72.314,295.024,74.726z"
      />
      <polygon
        style="fill: #333e48"
        points="328.776,67.769 333.521,93.542 338.268,67.769 		"
      />
      <path
        style="fill: #e8e8e8"
        d="M400.691,116.134h-76.979c-20.281,0-36.722,16.44-36.722,36.721c0,2.851,0.335,5.617,0.949,8.281
			c-0.614,2.661-0.949,5.431-0.949,8.278c0,17.122,11.717,31.506,27.57,35.572c-1.755-4.286-2.728-8.977-2.728-13.895
			c0-0.414,0.018-0.823,0.031-1.234c4.646,4.816,10.592,8.374,17.278,10.089c-1.345-3.286-2.227-6.81-2.566-10.491
			c2.867-0.221,5.642-0.766,8.287-1.607v0.004l52.839-12.506c13.049-3.279,22.712-15.086,22.712-29.15v-20.342
			C410.411,120.487,406.059,116.134,400.691,116.134z"
      />
      <circle style="fill: #333e48" cx="344.052" cy="101.374" r="5.156" />
      <g>
        <path
          style="fill: #333e48"
          d="M410.411,113.208c0-1.615-1.31-2.925-2.926-2.925l-5.094,0.063
				c-5.368,0.023-6.589,3.079-2.711,6.791l4.325,4.142c1.795,1.72,4.09,2.611,6.406,2.69L410.411,113.208L410.411,113.208z"
        />
      </g>
      <g>
        <path
          style="fill: #333e48"
          d="M290.583,58.791c-7.305,0-13.228,5.921-13.228,13.228c0,7.306,5.922,13.228,13.228,13.228h8.068
				c2.85,0,5.16-2.312,5.16-5.161V72.02C303.811,64.711,297.889,58.791,290.583,58.791z"
        />
        <path
          style="fill: #ff9c9f"
          d="M292.114,82.416c-4.889,0-8.867-3.978-8.867-8.865c0-4.89,3.979-8.867,8.867-8.867
				c4.889,0,8.867,3.978,8.867,8.867v8.066c0,0.44-0.358,0.799-0.8,0.799C300.181,82.417,292.114,82.417,292.114,82.416z"
        />
      </g>
    </g>
    <g>
      <path
        style="fill: #ff9e16"
        d="M96.8,173.016c-19.385,0-35.1,15.715-35.1,35.1v34.75h-3.303
			c-16.551,0-29.969,13.416-29.969,29.969v54.343c0,13.5,10.944,24.444,24.444,24.444h44.146c3.869,0,7.004-3.138,7.004-7.004
			c0-15.023-11.266-27.403-25.809-29.184v-31.294h12.614c22.684,0,41.071-18.387,41.071-41.071v-34.953
			C131.899,188.73,116.185,173.016,96.8,173.016z"
      />
      <g>
        <polygon
          style="fill: #333e48"
          points="61.7,226.305 61.7,239.124 96.505,232.712 			"
        />
        <path
          style="fill: #333e48"
          d="M28.959,267.228c-0.344,1.816-0.531,3.689-0.531,5.605v10.142l43.021-7.922L28.959,267.228z"
        />
        <polygon
          style="fill: #333e48"
          points="92.802,220.178 131.899,227.379 131.899,212.978 			"
        />
        <path
          style="fill: #333e48"
          d="M118.184,273.697c4.656-4.164,8.353-9.372,10.731-15.255l-46.789,8.614L118.184,273.697z"
        />
        <polygon
          style="fill: #333e48"
          points="78.214,303.555 78.214,295.25 55.665,299.402 			"
        />
      </g>
    </g>
    <g>
      <path
        style="fill: #ff9e16"
        d="M264.954,315.328v-108.6c0-13.501-10.944-24.444-24.443-24.444
			c-13.501,0-24.444,10.943-24.444,24.444v120.448c0,13.5,10.944,24.444,24.444,24.444h44.146c3.869,0,7.004-3.138,7.004-7.004
			C291.661,329.283,279.929,316.698,264.954,315.328z"
      />
      <g>
        <polygon
          style="fill: #333e48"
          points="216.067,267.767 216.067,281.94 254.547,274.852 			"
        />
        <polygon
          style="fill: #333e48"
          points="216.067,227.665 216.067,236.445 239.907,232.056 			"
        />
        <polygon
          style="fill: #333e48"
          points="264.954,256.5 264.954,243.064 228.47,249.783 			"
        />
        <polygon
          style="fill: #333e48"
          points="235.332,212.978 264.954,218.434 264.954,207.523 			"
        />
        <polygon
          style="fill: #333e48"
          points="264.954,301.503 264.954,288.066 228.47,294.784 			"
        />
      </g>
    </g>
  </g>
</svg>
