<?xml version="1.0" encoding="iso-8859-1"?>
<!-- Uploaded to: SVG Repo, www.svgrepo.com, Generator: SVG Repo Mixer Tools -->
<svg
  height="800px"
  width="800px"
  version="1.1"
  id="Layer_1"
  xmlns="http://www.w3.org/2000/svg"
  xmlns:xlink="http://www.w3.org/1999/xlink"
  viewBox="0 0 378.82 378.82"
  xml:space="preserve"
>
  <g>
    <g>
      <path
        style="fill: #00833e"
        d="M116.949,145.387c-12.141,12.142-31.826,12.142-43.969,0L0,72.406
			c21.629-21.629,56.697-21.629,78.326,0l55.804,55.802L116.949,145.387z"
      />
      <path
        style="fill: #006931"
        d="M7.592,66.074l72.351,72.351c8.296,8.296,21.748,8.296,30.045,0.001l17.18-17.18l6.963,6.962
			l-17.181,17.179c-12.141,12.142-31.826,12.142-43.969,0L0,72.406C2.378,70.029,4.924,67.929,7.592,66.074z"
      />
      <circle style="fill: #006931" cx="82.018" cy="108.915" r="6.724" />
      <circle style="fill: #006931" cx="68.433" cy="81.067" r="4.322" />
      <circle style="fill: #006931" cx="33.792" cy="74.954" r="7.445" />
    </g>
    <g>
      <path
        style="fill: #00833e"
        d="M269.341,259.252c-12.143,12.141-12.143,31.826,0,43.969l72.98,72.98
			c21.629-21.629,21.629-56.697,0-78.326l-55.802-55.804L269.341,259.252z"
      />
      <path
        style="fill: #006931"
        d="M348.653,368.609l-72.351-72.351c-8.296-8.296-8.296-21.748-0.001-30.045l17.18-17.18l-6.962-6.963
			l-17.179,17.181c-12.143,12.141-12.143,31.826,0,43.969l72.98,72.98C344.698,373.823,346.799,371.277,348.653,368.609z"
      />
      <circle style="fill: #006931" cx="305.813" cy="294.183" r="6.724" />
      <circle style="fill: #006931" cx="333.661" cy="307.768" r="4.322" />
      <circle style="fill: #006931" cx="339.774" cy="342.409" r="7.445" />
    </g>
    <g>
      <path
        style="fill: #00833e"
        d="M109.479,259.252c12.143,12.141,12.143,31.826,0,43.969l-72.98,72.98
			c-21.629-21.629-21.629-56.697,0-78.326l55.802-55.804L109.479,259.252z"
      />
      <path
        style="fill: #006931"
        d="M30.167,368.609l72.351-72.351c8.296-8.296,8.296-21.748,0.001-30.045l-17.18-17.18l6.962-6.963
			l17.179,17.181c12.143,12.141,12.143,31.826,0,43.969L36.5,376.2C34.122,373.823,32.021,371.277,30.167,368.609z"
      />
      <circle style="fill: #006931" cx="73.008" cy="294.183" r="6.724" />
      <circle style="fill: #006931" cx="45.159" cy="307.768" r="4.322" />
      <circle style="fill: #006931" cx="39.046" cy="342.409" r="7.445" />
    </g>
    <g>
      <path
        style="fill: #00833e"
        d="M261.871,145.387c12.141,12.142,31.826,12.142,43.969,0l72.98-72.981
			c-21.629-21.629-56.697-21.629-78.326,0l-55.804,55.802L261.871,145.387z"
      />
      <path
        style="fill: #006931"
        d="M371.229,66.074l-72.351,72.351c-8.296,8.296-21.748,8.296-30.045,0.001l-17.18-17.18l-6.963,6.962
			l17.181,17.179c12.141,12.142,31.826,12.142,43.969,0l72.98-72.981C376.442,70.029,373.897,67.929,371.229,66.074z"
      />
      <circle style="fill: #006931" cx="296.803" cy="108.915" r="6.724" />
      <circle style="fill: #006931" cx="310.388" cy="81.067" r="4.322" />
      <circle style="fill: #006931" cx="345.029" cy="74.954" r="7.445" />
    </g>
    <path
      style="fill: #006931"
      d="M207.926,328.934c2.753-7.041-1.181-12.803-8.741-12.803h-19.55c-7.56,0-11.493,5.761-8.74,12.803
		l13.512,34.57c2.752,7.041,7.256,7.041,10.008,0L207.926,328.934z"
    />
    <g>
      <path
        style="fill: #00833e"
        d="M189.41,2.619c-23.174,0-41.961,18.787-41.961,41.961v70.759h83.922V44.58
			C231.371,21.407,212.585,2.619,189.41,2.619z"
      />
      <circle style="fill: #333e48" cx="158.218" cy="43.485" r="5.013" />
      <circle style="fill: #333e48" cx="220.603" cy="43.485" r="5.013" />
    </g>
    <g>
      <path
        style="fill: #6bb587"
        d="M189.41,339.986c-62.602,0-113.532-50.93-113.532-113.532v-38.432
			c0-62.602,50.931-113.532,113.532-113.532c62.602,0,113.532,50.93,113.532,113.532v38.432
			C302.942,289.055,252.013,339.986,189.41,339.986z"
      />
      <path
        style="fill: #00833e"
        d="M189.41,90.071c-54.097,0-97.95,43.853-97.95,97.951v38.432c0,54.097,43.854,97.951,97.95,97.951
			s97.95-43.854,97.95-97.951v-38.432C287.36,133.925,243.507,90.071,189.41,90.071z"
      />
      <g>
        <path
          style="fill: #006931"
          d="M287.36,201.784h-88.504l51.988-90.047c-2.841-2.292-5.811-4.43-8.901-6.398L189.41,196.33
				l-52.533-90.991c-3.09,1.968-6.061,4.106-8.901,6.398l51.988,90.047H91.46v10.907h88.504l-51.988,90.047
				c2.841,2.292,5.812,4.43,8.901,6.398l52.533-90.991l52.533,90.991c3.091-1.968,6.061-4.107,8.901-6.398l-51.988-90.047h88.504
				V201.784z"
        />
        <polygon
          style="fill: #006931"
          points="165.648,248.395 141.887,207.237 165.648,166.08 213.172,166.08 236.934,207.237 
				213.172,248.395 			"
        />
      </g>
    </g>
  </g>
</svg>
