<?xml version="1.0" encoding="UTF-8" standalone="no"?>
<svg
  version="1.0"
  width="150"
  height="225"
  id="svg2"
  sodipodi:docname="Flag_of_None.svg"
  inkscape:version="1.2.1 (9c6d41e410, 2022-07-14)"
  xmlns:inkscape="http://www.inkscape.org/namespaces/inkscape"
  xmlns:sodipodi="http://sodipodi.sourceforge.net/DTD/sodipodi-0.dtd"
  xmlns="http://www.w3.org/2000/svg"
  xmlns:svg="http://www.w3.org/2000/svg"
  xmlns:rdf="http://www.w3.org/1999/02/22-rdf-syntax-ns#"
  xmlns:cc="http://creativecommons.org/ns#"
  xmlns:dc="http://purl.org/dc/elements/1.1/"
>
  <sodipodi:namedview
    id="namedview142"
    pagecolor="#ffffff"
    bordercolor="#666666"
    borderopacity="1.0"
    inkscape:showpageshadow="2"
    inkscape:pageopacity="0.0"
    inkscape:pagecheckerboard="0"
    inkscape:deskcolor="#d1d1d1"
    showgrid="false"
    inkscape:zoom="3.5266667"
    inkscape:cx="75.141777"
    inkscape:cy="112.42911"
    inkscape:window-width="1366"
    inkscape:window-height="705"
    inkscape:window-x="-4"
    inkscape:window-y="-4"
    inkscape:window-maximized="1"
    inkscape:current-layer="svg2"
  />
  <defs id="defs5" />
  <rect
    x="0"
    y="-150"
    width="225"
    height="150"
    style="fill: #d4d4d4"
    id="rect1310"
    transform="rotate(90)"
  />
  <path
    d="M 77.159126,130.48271 H 65.376283 c -0.08212,-0.28785 -0.462726,-1.33659 -1.141276,-3.1462 -0.678561,-1.80955 -1.017894,-3.39294 -1.017894,-4.75016 -2.1e-5,-2.59095 0.359864,-5.07913 1.07958,-7.46452 0.719727,-2.38532 1.778713,-4.61646 3.177053,-6.69341 1.398287,-2.07685 4.164066,-5.39785 8.297337,-9.962984 4.133218,-4.565012 6.199843,-8.328123 6.199885,-11.289321 -4.2e-5,-5.757689 -3.763142,-8.636565 -11.289331,-8.636649 -3.66031,8.4e-5 -7.485107,1.830229 -11.474401,5.490445 L 52.853141,72.123674 c 5.305353,-4.153728 12.276344,-6.230628 20.913014,-6.230723 6.662517,9.5e-5 12.224924,1.850801 16.68723,5.552131 4.462212,3.701497 6.693345,8.61616 6.693397,14.743988 -5.2e-5,4.19501 -0.812272,7.742192 -2.436764,10.641577 -1.624565,2.899501 -4.482879,6.302753 -8.574962,10.209743 -4.092157,3.90711 -6.755115,7.15612 -7.988895,9.74708 -1.233833,2.59102 -1.850738,5.42877 -1.850707,8.51325 -3.1e-5,0.65803 0.287849,2.3854 0.863651,5.18199 z m -5.243667,8.38988 c 2.796596,3e-5 5.171674,0.98705 7.125223,2.96114 1.953496,1.9741 2.930255,4.35946 2.930297,7.15607 -4.2e-5,2.79664 -0.976833,5.18199 -2.930297,7.15608 -1.953549,1.97409 -4.328627,2.96114 -7.125223,2.96114 -2.796659,0 -5.182013,-0.98705 -7.156082,-2.96114 -1.974111,-1.97409 -2.961145,-4.35944 -2.961135,-7.15608 -1e-5,-2.79661 0.987045,-5.18197 2.961135,-7.15607 1.974069,-1.97407 4.359423,-2.96111 7.156082,-2.96114 z"
    style="
      font-style: normal;
      font-variant: normal;
      font-weight: bold;
      font-stretch: normal;
      font-size: 12px;
      line-height: 125%;
      font-family: &quot;Trebuchet MS&quot;;
      text-align: start;
      writing-mode: lr-tb;
      text-anchor: start;
      fill: #ffffff;
      stroke-width: 10.5285;
    "
    id="flowRoot1875"
  />
  <metadata id="metadata302">
    <rdf:RDF>
      <cc:Work rdf:about="">
        <cc:license
          rdf:resource="http://creativecommons.org/licenses/by-sa/4.0/"
        />
        <dc:creator>
          <cc:Agent>
            <dc:title>Андрей Бутко</dc:title>
          </cc:Agent>
        </dc:creator>
      </cc:Work>
      <cc:License rdf:about="http://creativecommons.org/licenses/by-sa/4.0/">
        <cc:permits rdf:resource="http://creativecommons.org/ns#Reproduction" />
        <cc:permits rdf:resource="http://creativecommons.org/ns#Distribution" />
        <cc:requires rdf:resource="http://creativecommons.org/ns#Notice" />
        <cc:requires rdf:resource="http://creativecommons.org/ns#Attribution" />
        <cc:permits
          rdf:resource="http://creativecommons.org/ns#DerivativeWorks"
        />
        <cc:requires rdf:resource="http://creativecommons.org/ns#ShareAlike" />
      </cc:License>
    </rdf:RDF>
  </metadata>
</svg>
