<svg version="1.0" width="150" height="225" xmlns="http://www.w3.org/2000/svg">
  <path style="fill: #d4d4d4" transform="rotate(90)" d="M0-150h225V0H0z" />
  <path
    d="M77.16 130.483H65.375c-.082-.288-.462-1.337-1.141-3.146-.679-1.81-1.018-3.393-1.018-4.75
      0-2.592.36-5.08 1.08-7.465a24.692 24.692 0 0 1 3.177-6.694c1.398-2.076 4.164-5.397
      8.297-9.963 4.133-4.565 6.2-8.328 6.2-11.289 0-5.758-3.763-8.636-11.29-8.637-3.66
      0-7.484 1.83-11.474 5.49l-6.354-11.905c5.305-4.154 12.276-6.231 20.913-6.231 6.663 0
      12.225 1.85 16.687 5.552 4.463 3.702 6.694 8.616 6.694 14.744 0 4.195-.812 7.742-2.437
      10.642-1.625 2.9-4.483 6.302-8.575 10.21-4.092 3.907-6.755 7.156-7.989 9.746-1.234 2.591-1.85
      5.43-1.85 8.514 0 .658.287 2.385.863 5.182zm-5.245 8.39c2.797 0 5.172.987 7.126 2.96 1.953 1.975
      2.93 4.36 2.93 7.157 0 2.796-.977 5.182-2.93 7.156-1.954 1.974-4.329 2.961-7.126 2.961-2.796
      0-5.182-.987-7.156-2.961-1.974-1.974-2.96-4.36-2.96-7.156 0-2.797.986-5.182 2.96-7.156 1.974-1.974
      4.36-2.961 7.156-2.961z"
    fill="#fff"
  />
</svg>
